<svg width="24.000000" height="24.000000" viewBox="0 0 24 24" fill="none" xmlns="http://www.w3.org/2000/svg" xmlns:xlink="http://www.w3.org/1999/xlink">
	<desc>
			Created with Pixso.
	</desc>
	<defs>
		<clipPath id="clip190_854">
			<rect id="Frame" width="24.000000" height="24.000000" fill="white" fill-opacity="0"/>
		</clipPath>
	</defs>
	<rect id="Frame" width="24.000000" height="24.000000" fill="#FFFFFF" fill-opacity="0"/>
	<g clip-path="url(#clip190_854)">
		<path id="Vector" d="M4 6.41394L0.756836 3.172L2.17188 1.75696L5.41406 5L20.6558 5C20.8115 5 20.9653 5.03638 21.1045 5.10632C21.2441 5.17627 21.3652 5.27783 21.458 5.40283C21.5513 5.52783 21.6138 5.67297 21.6406 5.82642C21.668 5.97998 21.6587 6.1377 21.6138 6.28699L19.2139 14.287C19.1519 14.493 19.0254 14.6737 18.853 14.8021C18.6802 14.9307 18.4712 15 18.2559 15L6 15L6 17L17 17L17 19L5 19C4.73486 19 4.48047 18.8947 4.29297 18.707C4.10498 18.5195 4 18.2651 4 18L4 6.41394ZM6 7L6 13L17.5117 13L19.312 7L6 7ZM5.5 23C5.10205 23 4.7207 22.8419 4.43896 22.5607C4.15771 22.2793 4 21.8978 4 21.5C4 21.1022 4.15771 20.7206 4.43896 20.4393C4.7207 20.158 5.10205 20 5.5 20C5.89746 20 6.2793 20.158 6.56055 20.4393C6.8418 20.7206 7 21.1022 7 21.5C7 21.8978 6.8418 22.2793 6.56055 22.5607C6.2793 22.8419 5.89746 23 5.5 23ZM17.5 23C17.1021 23 16.7207 22.8419 16.439 22.5607C16.1577 22.2793 16 21.8978 16 21.5C16 21.1022 16.1577 20.7206 16.439 20.4393C16.7207 20.158 17.1021 20 17.5 20C17.8975 20 18.2793 20.158 18.5605 20.4393C18.8418 20.7206 19 21.1022 19 21.5C19 21.8978 18.8418 22.2793 18.5605 22.5607C18.2793 22.8419 17.8975 23 17.5 23Z" fill="#D2B574" fill-opacity="1.000000" fill-rule="nonzero"/>
	</g>
</svg>
