<svg width="59.000000" height="59.000000" viewBox="0 0 59 59" fill="none" xmlns="http://www.w3.org/2000/svg" xmlns:xlink="http://www.w3.org/1999/xlink">
	<desc>
			Created with Pixso.
	</desc>
	<defs>
		<clipPath id="clip25_16">
			<rect id="Frame" width="59.000000" height="59.000000" fill="white" fill-opacity="0"/>
		</clipPath>
	</defs>
	<rect id="Frame" width="59.000000" height="59.000000" fill="#FFFFFF" fill-opacity="0"/>
	<g clip-path="url(#clip25_16)">
		<path id="Vector" d="M29.5 58.3313L13.8552 42.6863C10.761 39.592 8.65378 35.6499 7.80011 31.3579C6.94644 27.0662 7.38461 22.6177 9.0592 18.5747C10.7338 14.532 13.5696 11.0767 17.208 8.64551C20.8465 6.21436 25.1241 4.91675 29.5 4.91675C33.8759 4.91675 38.1535 6.21436 41.792 8.64551C45.4304 11.0767 48.2662 14.532 49.9408 18.5747C51.6154 22.6177 52.0536 27.0662 51.1999 31.3579C50.3462 35.6499 48.239 39.592 45.1448 42.6863L29.5 58.3313ZM41.6688 39.2102C44.0752 36.8037 45.714 33.7373 46.3778 30.3994C47.0417 27.0613 46.7008 23.6013 45.3983 20.457C44.0958 17.3127 41.8901 14.6252 39.0603 12.7344C36.2304 10.8438 32.9034 9.83447 29.5 9.83447C26.0966 9.83447 22.7696 10.8438 19.9398 12.7344C17.1099 14.6252 14.9043 17.3127 13.6017 20.457C12.2993 23.6013 11.9583 27.0613 12.6222 30.3994C13.286 33.7373 14.9248 36.8037 17.3313 39.2102L29.5 51.3792L41.6688 39.2102ZM29.5 31.9583C28.196 31.9583 26.9455 31.4402 26.0234 30.5181C25.1013 29.5962 24.5833 28.3455 24.5833 27.0415C24.5833 25.7375 25.1013 24.4871 26.0234 23.5649C26.9455 22.6428 28.196 22.125 29.5 22.125C30.804 22.125 32.0546 22.6428 32.9766 23.5649C33.8987 24.4871 34.4167 25.7375 34.4167 27.0415C34.4167 28.3455 33.8987 29.5962 32.9766 30.5181C32.0546 31.4402 30.804 31.9583 29.5 31.9583Z" fill="#D2B574" fill-opacity="1.000000" fill-rule="nonzero"/>
	</g>
</svg>
