<svg width="24.000000" height="24.000000" viewBox="0 0 24 24" fill="none" xmlns="http://www.w3.org/2000/svg" xmlns:xlink="http://www.w3.org/1999/xlink">
	<desc>
			Created with Pixso.
	</desc>
	<defs>
		<clipPath id="clip35_192">
			<rect id="Frame" width="24.000000" height="24.000000" fill="white" fill-opacity="0"/>
		</clipPath>
	</defs>
	<rect id="Frame" width="24.000000" height="24.000000" fill="#FFFFFF" fill-opacity="0"/>
	<g clip-path="url(#clip35_192)">
		<path id="Vector" d="M20 22L4 22C3.7348 22 3.48041 21.8947 3.29291 21.7072C3.10535 21.5195 3 21.2653 3 21L3 3C3 2.73474 3.10535 2.48047 3.29291 2.29285C3.48041 2.10535 3.7348 2 4 2L20 2C20.2652 2 20.5196 2.10535 20.7071 2.29285C20.8947 2.48047 21 2.73474 21 3L21 21C21 21.2653 20.8947 21.5195 20.7071 21.7072C20.5196 21.8947 20.2652 22 20 22ZM19 20L19 4L5 4L5 20L19 20ZM8 7L16 7L16 9L8 9L8 7ZM8 11L16 11L16 13L8 13L8 11ZM8 15L16 15L16 17L8 17L8 15Z" fill="#2E2E2E" fill-opacity="1.000000" fill-rule="nonzero"/>
	</g>
</svg>
