<svg width="20.313965" height="20.313965" viewBox="0 0 20.314 20.314" fill="none" xmlns="http://www.w3.org/2000/svg" xmlns:xlink="http://www.w3.org/1999/xlink">
	<desc>
			Created with Pixso.
	</desc>
	<defs/>
	<path id="Vector" d="M16.0308 14.6169L20.314 18.899L18.8989 20.314L14.6172 16.031C13.0239 17.3082 11.042 18.0029 9 18C4.03223 18 0 13.968 0 9C0 4.03198 4.03223 0 9 0C13.9678 0 18 4.03198 18 9C18.0029 11.042 17.3081 13.0237 16.0308 14.6169ZM14.0249 13.875C15.2939 12.5698 16.0029 10.8204 16 9C16 5.13196 12.8672 2 9 2C5.13184 2 2 5.13196 2 9C2 12.8669 5.13184 16 9 16C10.8203 16.0028 12.5698 15.2941 13.875 14.025L14.0249 13.875Z" fill="#2E2E2E" fill-opacity="1.000000" fill-rule="nonzero"/>
</svg>
