<svg width="59.625000" height="59.625000" viewBox="0 0 59.625 59.625" fill="none" xmlns="http://www.w3.org/2000/svg" xmlns:xlink="http://www.w3.org/1999/xlink">
	<desc>
			Created with Pixso.
	</desc>
	<defs>
		<filter id="filter_27_32_dd" x="0.000000" y="0.000000" width="59.625000" height="59.625000" filterUnits="userSpaceOnUse" color-interpolation-filters="sRGB">
			<feFlood flood-opacity="0" result="BackgroundImageFix"/>
			<feColorMatrix in="SourceAlpha" type="matrix" values="0 0 0 0 0 0 0 0 0 0 0 0 0 0 0 0 0 0 127 0" result="hardAlpha"/>
			<feOffset dx="0" dy="4"/>
			<feGaussianBlur stdDeviation="1.33333"/>
			<feComposite in2="hardAlpha" operator="out" k2="-1" k3="1"/>
			<feColorMatrix type="matrix" values="0 0 0 0 0 0 0 0 0 0 0 0 0 0 0 0 0 0 0.25 0"/>
			<feBlend mode="normal" in2="BackgroundImageFix" result="effect_dropShadow_1"/>
			<feBlend mode="normal" in="SourceGraphic" in2="effect_dropShadow_1" result="shape"/>
		</filter>
	</defs>
	<g filter="url(#filter_27_32_dd)">
		<path id="Vector" d="M4 51.625C4 46.4092 6.07202 41.4067 9.76023 37.7185C13.4484 34.0303 18.4507 31.9583 23.6667 31.9583C28.8826 31.9583 33.8849 34.0303 37.5731 37.7185C41.2613 41.4067 43.3333 46.4092 43.3333 51.625L38.4167 51.625C38.4167 47.7131 36.8627 43.9614 34.0965 41.1951C31.3303 38.429 27.5786 36.875 23.6667 36.875C19.7547 36.875 16.003 38.429 13.2368 41.1951C10.4707 43.9614 8.91667 47.7131 8.91667 51.625L4 51.625ZM23.6667 29.5C15.5173 29.5 8.91667 22.8994 8.91667 14.75C8.91667 6.60059 15.5173 0 23.6667 0C31.816 0 38.4167 6.60059 38.4167 14.75C38.4167 22.8994 31.816 29.5 23.6667 29.5ZM23.6667 24.5833C29.0996 24.5833 33.5 20.1829 33.5 14.75C33.5 9.31714 29.0996 4.91675 23.6667 4.91675C18.2337 4.91675 13.8333 9.31714 13.8333 14.75C13.8333 20.1829 18.2337 24.5833 23.6667 24.5833ZM44.0315 33.6865C47.4863 35.2424 50.4182 37.7629 52.4749 40.9453C54.5315 44.1274 55.6254 47.8359 55.625 51.625L50.7083 51.625C50.7089 48.7832 49.8886 46.0015 48.3461 43.6147C46.8036 41.2278 44.6045 39.3374 42.0132 38.1707L44.029 33.6865L44.0315 33.6865ZM42.3402 5.93188C44.817 6.95288 46.9347 8.68652 48.4246 10.9131C49.9145 13.1396 50.7093 15.7585 50.7083 18.4375C50.7094 21.811 49.4489 25.0632 47.1746 27.5549C44.9002 30.0469 41.7764 31.5981 38.4167 31.9043L38.4167 26.9556C40.2381 26.6948 41.928 25.8567 43.2382 24.5647C44.5484 23.2727 45.4099 21.5947 45.6962 19.7771C45.9825 17.9595 45.6785 16.0979 44.8289 14.4658C43.9794 12.8335 42.6289 11.5166 40.9758 10.7085L42.3402 5.93188Z" fill="#D2B574" fill-opacity="1.000000" fill-rule="nonzero"/>
	</g>
</svg>
