<svg width="18.000000" height="20.000000" viewBox="0 0 18 20" fill="none" xmlns="http://www.w3.org/2000/svg" xmlns:xlink="http://www.w3.org/1999/xlink">
	<desc>
			Created with Pixso.
	</desc>
	<defs/>
	<path id="Vector" d="M17 20L1 20C0.734863 20 0.480469 19.8945 0.292969 19.707C0.105469 19.5195 0 19.2651 0 19L0 1C0 0.734863 0.105469 0.480469 0.292969 0.292969C0.480469 0.105469 0.734863 0 1 0L17 0C17.2651 0 17.5195 0.105469 17.707 0.292969C17.8945 0.480469 18 0.734863 18 1L18 19C18 19.2651 17.8945 19.5195 17.707 19.707C17.5195 19.8945 17.2651 20 17 20ZM16 18L16 2L2 2L2 18L16 18ZM5 5L13 5L13 7L5 7L5 5ZM5 9L13 9L13 11L5 11L5 9ZM5 13L13 13L13 15L5 15L5 13Z" fill="#2E2E2E" fill-opacity="1.000000" fill-rule="nonzero"/>
</svg>
