<svg width="24.000000" height="24.000000" viewBox="0 0 24 24" fill="none" xmlns="http://www.w3.org/2000/svg" xmlns:xlink="http://www.w3.org/1999/xlink">
	<desc>
			Created with Pixso.
	</desc>
	<defs>
		<clipPath id="clip35_189">
			<rect id="Frame" width="24.000000" height="24.000000" fill="white" fill-opacity="0"/>
		</clipPath>
	</defs>
	<rect id="Frame" width="24.000000" height="24.000000" fill="#FFFFFF" fill-opacity="0"/>
	<g clip-path="url(#clip35_189)">
		<path id="Vector" d="M3.99994 6.41394L0.756958 3.172L2.17194 1.75696L5.41394 5L20.6559 5C20.8118 5 20.9655 5.03638 21.1048 5.10632C21.2441 5.17627 21.3651 5.27783 21.4582 5.40283C21.5513 5.52783 21.6138 5.67297 21.6409 5.82642C21.6679 5.97998 21.6587 6.1377 21.614 6.28699L19.214 14.287C19.1522 14.493 19.0256 14.6737 18.8531 14.8021C18.6805 14.9307 18.4711 15 18.256 15L5.99994 15L5.99994 17L16.9999 17L16.9999 19L4.99994 19C4.73474 19 4.48041 18.8947 4.29285 18.707C4.10529 18.5195 3.99994 18.2651 3.99994 18L3.99994 6.41394ZM5.99994 7L5.99994 13L17.512 13L19.312 7L5.99994 7ZM5.49994 23C5.10211 23 4.72058 22.8419 4.43927 22.5607C4.15802 22.2793 3.99994 21.8978 3.99994 21.5C3.99994 21.1022 4.15802 20.7206 4.43927 20.4393C4.72058 20.158 5.10211 20 5.49994 20C5.89777 20 6.2793 20.158 6.56061 20.4393C6.84192 20.7206 6.99994 21.1022 6.99994 21.5C6.99994 21.8978 6.84192 22.2793 6.56061 22.5607C6.2793 22.8419 5.89777 23 5.49994 23ZM17.4999 23C17.1021 23 16.7206 22.8419 16.4393 22.5607C16.158 22.2793 15.9999 21.8978 15.9999 21.5C15.9999 21.1022 16.158 20.7206 16.4393 20.4393C16.7206 20.158 17.1021 20 17.4999 20C17.8978 20 18.2793 20.158 18.5606 20.4393C18.8419 20.7206 18.9999 21.1022 18.9999 21.5C18.9999 21.8978 18.8419 22.2793 18.5606 22.5607C18.2793 22.8419 17.8978 23 17.4999 23Z" fill="#2E2E2E" fill-opacity="1.000000" fill-rule="nonzero"/>
	</g>
</svg>
