<svg width="48.000000" height="48.000000" viewBox="0 0 48 48" fill="none" xmlns="http://www.w3.org/2000/svg" xmlns:xlink="http://www.w3.org/1999/xlink">
	<desc>
			Created with Pixso.
	</desc>
	<defs/>
	<rect id="Instagram_black" width="48.000000" height="48.000000" fill="#FFFFFF" fill-opacity="0"/>
	<path id="Combined-Shape" d="M24 0C10.7451 0 0 10.7451 0 24C0 37.2549 10.7451 48 24 48C37.2549 48 48 37.2549 48 24C48 10.7451 37.2549 0 24 0ZM23.9972 11.2L24.0012 11.2C27.4749 11.2 27.9098 11.2153 29.2745 11.2773C30.6372 11.3398 31.568 11.5554 32.3839 11.8721C33.2267 12.1987 33.9386 12.636 34.6506 13.3481C35.3627 14.0596 35.8 14.7737 36.1281 15.6155C36.4426 16.4294 36.6587 17.3596 36.7227 18.7222C36.7841 20.0876 36.8 20.5239 36.8 24.0002C36.8 27.4763 36.7841 27.9116 36.7227 29.2771C36.6587 30.6392 36.4426 31.5696 36.1281 32.3838C35.8 33.2253 35.3627 33.9395 34.6506 34.6509C33.9395 35.363 33.2263 35.8013 32.3848 36.1282C31.5703 36.4448 30.6392 36.6606 29.2765 36.7229C27.9111 36.7852 27.4762 36.8003 23.9996 36.8003C20.5236 36.8003 20.0875 36.7852 18.7222 36.7229C17.3597 36.6606 16.4294 36.4448 15.615 36.1282C14.7737 35.8013 14.0594 35.363 13.3483 34.6509C12.6366 33.9395 12.1992 33.2253 11.8719 32.3833C11.5558 31.5696 11.34 30.6394 11.2773 29.2766C11.2155 27.9114 11.2 27.4763 11.2 24.0002C11.2 20.5239 11.2159 20.0874 11.2771 18.7219C11.3384 17.3599 11.5544 16.4294 11.8717 15.6152C12.1997 14.7737 12.6371 14.0596 13.3491 13.3481C14.0605 12.6362 14.7747 12.199 15.6166 11.8721C16.4304 11.5554 17.3606 11.3398 18.7233 11.2773C20.0881 11.2153 20.5245 11.2 23.9972 11.2Z" clip-rule="evenodd" fill="#2E2E2E" fill-opacity="1.000000" fill-rule="evenodd"/>
	<path id="Combined-Shape" d="M23.5746 13.5066C23.3158 13.5063 23.0759 13.5063 22.853 13.5066L22.853 13.5034C20.4674 13.5061 20.0098 13.522 18.829 13.5754C17.5809 13.6328 16.9033 13.8408 16.4521 14.0168C15.8547 14.2493 15.4281 14.5266 14.9801 14.9746C14.5321 15.4226 14.2543 15.8494 14.0222 16.4465C13.847 16.8979 13.6384 17.5752 13.5814 18.8232C13.52 20.1726 13.5078 20.5757 13.5078 23.9939C13.5078 27.4121 13.52 27.8174 13.5814 29.1667C13.6382 30.4148 13.847 31.092 14.0222 31.5427C14.2548 32.1404 14.5321 32.5659 14.9801 33.0139C15.4281 33.4619 15.8547 33.7393 16.4521 33.9714C16.9036 34.1465 17.5809 34.355 18.829 34.4126C20.1782 34.4741 20.5834 34.4873 24.0012 34.4873C27.4189 34.4873 27.8242 34.4741 29.1736 34.4126C30.4216 34.3557 31.0995 34.1477 31.5502 33.9717C32.1477 33.7397 32.5731 33.4624 33.0211 33.0144C33.4691 32.5667 33.7469 32.1411 33.979 31.5439C34.1542 31.0933 34.3627 30.4158 34.4198 29.168C34.4811 27.8186 34.4944 27.4131 34.4944 23.9971C34.4944 20.5811 34.4811 20.1758 34.4198 18.8264C34.3629 17.5784 34.1542 16.9011 33.979 16.4504C33.7465 15.853 33.4691 15.4263 33.0211 14.9783C32.5734 14.5303 32.1475 14.2529 31.5502 14.021C31.0989 13.8457 30.4216 13.6372 29.1736 13.5803C27.824 13.5188 27.4189 13.5066 24.0012 13.5066C23.8535 13.5066 23.7114 13.5066 23.5746 13.5066ZM30.8339 15.6321C29.9858 15.6321 29.2979 16.3191 29.2979 17.1675C29.2979 18.0154 29.9858 18.7034 30.8339 18.7034C31.6819 18.7034 32.3699 18.0154 32.3699 17.1675C32.3699 16.3193 31.6819 15.6313 30.8339 15.6313L30.8339 15.6321ZM17.4279 24C17.4279 20.3699 20.371 17.4268 24.001 17.4268C27.6311 17.4268 30.5736 20.3699 30.5736 24C30.5736 27.6301 27.6315 30.572 24.0012 30.572C20.3711 30.572 17.4279 27.6301 17.4279 24Z" clip-rule="evenodd" fill="#2E2E2E" fill-opacity="1.000000" fill-rule="evenodd"/>
	<path id="Shape" d="M24.0012 19.7334C26.3575 19.7334 28.2679 21.6436 28.2679 24C28.2679 26.3564 26.3575 28.2668 24.0012 28.2668C21.6447 28.2668 19.7345 26.3564 19.7345 24C19.7345 21.6436 21.6447 19.7334 24.0012 19.7334Z" fill="#2E2E2E" fill-opacity="1.000000" fill-rule="nonzero"/>
</svg>
