<svg width="184.000000" height="27.000000" viewBox="0 0 184 27" fill="none" xmlns="http://www.w3.org/2000/svg" xmlns:xlink="http://www.w3.org/1999/xlink">
	<desc>
			Created with Pixso.
	</desc>
	<defs>
		<clipPath id="clip35_167">
			<rect id="123gold-logo-gold 1" width="184.000000" height="27.000000" fill="white" fill-opacity="0"/>
		</clipPath>
	</defs>
	<rect id="123gold-logo-gold 1" width="184.000000" height="27.000000" fill="#FFFFFF" fill-opacity="0"/>
	<g clip-path="url(#clip35_167)">
		<path id="Vector" d="M125.096 24.0179L113.128 24.0179C112.123 24.0315 111.135 23.7523 110.286 23.2144C109.346 22.5656 108.585 21.4822 108.579 19.4882L108.579 7.48218C108.571 6.47412 108.856 5.48547 109.4 4.63696C110.054 3.69641 111.13 2.93457 113.128 2.92261L125.096 2.92261C126.105 2.92041 127.094 3.20752 127.944 3.75C128.878 4.40479 129.639 5.48816 129.651 7.48218L129.651 19.4702C129.651 20.4762 129.364 21.4612 128.824 22.3096C128.176 23.25 127.094 24.012 125.096 24.0179ZM129.996 1.69641C128.598 0.598022 126.873 0.000610352 125.096 0L113.128 0C112.031 -0.0483398 110.938 0.159302 109.935 0.606689C108.932 1.05396 108.046 1.72864 107.349 2.57739C106.253 3.97668 105.658 5.70398 105.66 7.48218L105.66 19.4702C105.609 20.5656 105.813 21.6577 106.256 22.6606C106.699 23.6636 107.368 24.55 108.211 25.25C109.61 26.3452 111.334 26.9421 113.11 26.9464L125.102 26.9464C126.196 26.995 127.286 26.791 128.288 26.3502C129.29 25.9095 130.178 25.2439 130.882 24.4048C131.983 22.9957 132.583 21.2594 132.588 19.4702L132.588 7.48218C132.631 6.38403 132.421 5.29065 131.974 4.28723C131.526 3.28369 130.853 2.39709 130.008 1.69641L129.996 1.69641Z" fill="#B48C50" fill-opacity="1.000000" fill-rule="nonzero"/>
		<path id="Vector" d="M61.7337 1.78564C60.5178 0.685791 58.9428 0.067749 57.3042 0.0476074L39.8359 0.0476074L39.8359 2.9762L57.3042 2.9762C58.6182 3.01782 61.3235 3.57141 61.3413 7.52979C61.3591 11.488 58.6122 12.0536 57.3042 12.0892L45.2405 12.0892L45.2405 15.0118L57.3042 15.0118C58.6241 15.0536 61.3235 15.6072 61.3413 19.5178C61.3591 23.4286 58.6182 24.0356 57.3042 24.0714L39.8359 24.0714L39.8359 27L57.3042 27C58.9392 26.9836 60.5129 26.3746 61.7337 25.2856C63.0715 24.0952 64.0406 22.1904 64.0347 19.5178C64.0347 17.2678 63.3271 15.6012 61.5732 13.5654C63.3569 11.4642 64.0466 9.80359 64.0347 7.54761C64.0347 4.875 63.0715 2.9762 61.7337 1.77979L61.7337 1.78564Z" fill="#B48C50" fill-opacity="1.000000" fill-rule="nonzero"/>
		<path id="Vector" d="M94.2088 12.3988L94.2088 14.9584L99.2924 14.9584L99.2924 24.0238C98.454 24.0238 96.1293 24.0238 92.2408 24.0238C89.7397 24.0238 86.5845 24.0238 82.7753 24.0238C81.2711 23.988 78.2269 23.3988 78.221 19.4702L78.221 7.4762C78.2566 5.9762 78.8512 2.92859 82.7753 2.92261L100.761 2.92261L100.761 0L82.7694 0C77.3589 0 75.3017 4.375 75.2957 7.4762L75.2957 19.4642C75.2957 24.881 79.6598 26.9346 82.7694 26.9464L102.212 26.9464L102.212 12.0358L94.2088 12.0358L94.2088 12.3988Z" fill="#B48C50" fill-opacity="1.000000" fill-rule="nonzero"/>
		<path id="Vector" d="M138.944 19.4642L138.944 0L136.019 0L136.019 19.4642C136.019 24.881 140.383 26.9404 143.486 26.9464L154.307 26.9464L154.307 24.0178L143.486 24.0178C141.988 23.988 138.95 23.3928 138.944 19.4642Z" fill="#B48C50" fill-opacity="1.000000" fill-rule="nonzero"/>
		<path id="Vector" d="M1.07616 0L0 0L0 2.92261L1.07616 2.92261C2.57447 2.9762 5.61864 3.57141 5.62458 7.48218L5.62458 26.9464L8.54984 26.9464L8.54984 7.48218C8.53795 2.05957 4.16195 0 1.07616 0Z" fill="#B48C50" fill-opacity="1.000000" fill-rule="nonzero"/>
		<path id="Vector" d="M176.532 0L157.025 0L157.025 2.92261L176.532 2.92261C180.45 2.92261 181.039 5.9762 181.075 7.48218L181.075 19.4642C181.075 23.387 177.977 23.988 176.479 24.0178C172.662 24.0178 169.505 24.0178 167.007 24.0178C163.113 24.0178 160.788 24.0178 159.95 24.0178L159.95 5.82739L157.025 5.82739L157.025 26.9464L176.532 26.9464C179.636 26.9464 183.994 24.881 184 19.4642L184 7.48218C183.994 4.36902 181.937 0 176.532 0Z" fill="#B48C50" fill-opacity="1.000000" fill-rule="nonzero"/>
		<path id="Vector" d="M29.6926 0L14.3706 0L14.3706 2.92261L29.6926 2.92261C33.147 2.92261 33.7594 5.8988 33.8129 7.39282C33.7594 8.88696 33.147 11.863 29.6926 11.863L18.5564 11.9048C17.521 11.8618 16.4911 12.0751 15.5577 12.5256C14.6243 12.9762 13.8163 13.6503 13.2053 14.488C12.2012 15.9215 11.6635 17.6302 11.6653 19.381L11.6653 19.744C11.8199 22.7678 13.4193 27.0178 18.2056 27.0298L36.2684 27.0298L36.2684 24.0714L18.2472 24.0714C17.6044 24.1191 16.9619 23.975 16.401 23.6572C15.8401 23.3394 15.3859 22.8621 15.096 22.2858C14.6564 21.3558 14.4328 20.3383 14.442 19.3096C14.4895 17.8214 15.09 14.8096 18.5623 14.8154L29.6926 14.8154C34.4491 14.8154 36.3636 10.8988 36.5419 7.875L36.5419 7.50598C36.543 5.7572 36.0053 4.05066 35.002 2.61902C34.3909 1.78088 33.583 1.10632 32.6498 0.654663C31.7166 0.203125 30.6866 -0.0114746 29.6509 0.0297852L29.6926 0Z" fill="#B48C50" fill-opacity="1.000000" fill-rule="nonzero"/>
	</g>
</svg>
