<svg width="48.000000" height="48.000000" viewBox="0 0 48 48" fill="none" xmlns="http://www.w3.org/2000/svg" xmlns:xlink="http://www.w3.org/1999/xlink">
	<desc>
			Created with Pixso.
	</desc>
	<defs/>
	<rect id="Telegram_black" width="48.000000" height="48.000000" fill="#FFFFFF" fill-opacity="0"/>
	<path id="Combined-Shape" d="M0 24C0 37.2549 10.7451 48 24 48C37.2549 48 48 37.2549 48 24C48 10.7451 37.2549 0 24 0C10.7451 0 0 10.7451 0 24ZM20.0083 28.8823L19.6 35C20.2 35 20.4651 34.7256 20.8 34.3999L23.6827 31.5969L29.6801 36.0278C30.7837 36.6367 31.5803 36.3215 31.8552 35.0032L35.7922 16.4504C36.1953 14.8345 35.1761 14.1016 34.1204 14.5808L11.0023 23.4951C9.42432 24.1279 9.43347 25.0083 10.7147 25.4006L16.6473 27.2524L30.3818 18.5874C31.0303 18.1941 31.6254 18.4055 31.137 18.8391L20.0081 28.8821L20.0083 28.8823Z" clip-rule="evenodd" fill="#2E2E2E" fill-opacity="1.000000" fill-rule="evenodd"/>
</svg>
