<svg width="48.000000" height="48.000000" viewBox="0 0 48 48" fill="none" xmlns="http://www.w3.org/2000/svg" xmlns:xlink="http://www.w3.org/1999/xlink">
	<desc>
			Created with Pixso.
	</desc>
	<defs/>
	<rect id="Twitter_black" width="48.000000" height="48.000000" fill="#FFFFFF" fill-opacity="0"/>
	<path id="Combined-Shape" d="M24 0C10.7451 0 0 10.7451 0 24C0 37.2549 10.7451 48 24 48C37.2549 48 48 37.2549 48 24C48 10.7451 37.2549 0 24 0ZM23.3315 20.3379L23.2812 19.5076C23.1301 17.355 24.4563 15.3892 26.5547 14.6265C27.3269 14.3552 28.6365 14.3213 29.4927 14.5586C29.8284 14.6604 30.4663 14.9993 30.9194 15.3044L31.7422 15.8638L32.6487 15.5754C33.1523 15.4231 33.8237 15.1687 34.126 14.9993C34.4114 14.8467 34.6631 14.762 34.6631 14.813C34.6631 15.1011 34.042 16.084 33.5215 16.6262C32.8164 17.3889 33.0181 17.4568 34.4448 16.9482C35.301 16.6602 35.3179 16.6602 35.1499 16.9822C35.0493 17.1516 34.5288 17.7449 33.9749 18.2874C33.0347 19.2195 32.9844 19.321 32.9844 20.1006C32.9844 21.304 32.4136 23.8123 31.8428 25.1851C30.7852 27.7612 28.5188 30.4221 26.2527 31.761C23.063 33.6421 18.8157 34.1167 15.24 33.0151C14.0481 32.6423 12 31.6931 12 31.5237C12 31.4729 12.6211 31.405 13.3765 31.3882C14.9546 31.3542 16.5327 30.9136 17.8757 30.134L18.7822 29.5916L17.7412 29.2356C16.2639 28.7273 14.9377 27.5579 14.6021 26.4563C14.5012 26.1003 14.5349 26.0833 15.4751 26.0833L16.4487 26.0664L15.6262 25.6765C14.6523 25.1851 13.7627 24.3547 13.3262 23.5073C13.0073 22.8972 12.6042 21.3547 12.7219 21.2361C12.7554 21.1853 13.1079 21.2871 13.511 21.4226C14.6692 21.8464 14.8203 21.7446 14.1487 21.0327C12.8896 19.7449 12.5037 17.8296 13.1079 16.0161L13.3933 15.2026L14.5012 16.3042C16.7676 18.5244 19.4368 19.8464 22.4922 20.2363L23.3315 20.3379Z" clip-rule="evenodd" fill="#2E2E2E" fill-opacity="1.000000" fill-rule="evenodd"/>
</svg>
