<svg width="39.333328" height="51.627441" viewBox="0 0 39.3333 51.6274" fill="none" xmlns="http://www.w3.org/2000/svg" xmlns:xlink="http://www.w3.org/1999/xlink">
	<desc>
			Created with Pixso.
	</desc>
	<defs/>
	<path id="Vector" d="M19.6667 12.2939C24.8826 12.2939 29.8849 14.3662 33.5731 18.0542C37.2613 21.7427 39.3333 26.7446 39.3333 31.9609C39.3333 37.1768 37.2613 42.1792 33.5731 45.8672C29.8849 49.5557 24.8826 51.6274 19.6667 51.6274C14.4507 51.6274 9.44845 49.5557 5.76023 45.8672C2.07202 42.1792 0 37.1768 0 31.9609C0 26.7446 2.07202 21.7427 5.76023 18.0542C9.44845 14.3662 14.4507 12.2939 19.6667 12.2939ZM19.6667 17.2109C15.7547 17.2109 12.003 18.7646 9.23684 21.5308C6.47068 24.2974 4.91666 28.0488 4.91666 31.9609C4.91666 35.8726 6.47068 39.6245 9.23684 42.3906C12.003 45.1567 15.7547 46.7109 19.6667 46.7109C23.5786 46.7109 27.3303 45.1567 30.0965 42.3906C32.8627 39.6245 34.4167 35.8726 34.4167 31.9609C34.4167 28.0488 32.8627 24.2974 30.0965 21.5308C27.3303 18.7646 23.5786 17.2109 19.6667 17.2109ZM19.6667 20.8984L22.919 27.4868L30.1883 28.5439L24.9275 33.6694L26.169 40.9116L19.6667 37.4922L13.1644 40.9092L14.4058 33.6694L9.145 28.541L16.4143 27.4844L19.6667 20.8984ZM34.4167 0.00244141L34.4167 7.37744L31.0659 10.1748C28.2854 8.71631 25.2497 7.80713 22.125 7.49805L22.125 0.00244141L34.4167 0.00244141ZM17.2083 0L17.2083 7.49805C14.0846 7.80664 11.0498 8.71484 8.26983 10.1724L4.91666 7.37744L4.91666 0.00244141L17.2083 0Z" fill="#D2B574" fill-opacity="1.000000" fill-rule="nonzero"/>
</svg>
