<svg width="44.250031" height="53.414551" viewBox="0 0 44.25 53.4146" fill="none" xmlns="http://www.w3.org/2000/svg" xmlns:xlink="http://www.w3.org/1999/xlink">
	<desc>
			Created with Pixso.
	</desc>
	<defs/>
	<path id="Vector" d="M22.125 53.4146L6.48016 37.7695C3.38596 34.6753 1.27878 30.7332 0.42511 26.4412C-0.428558 22.1494 0.00961304 17.7009 1.6842 13.658C3.3588 9.61523 6.19461 6.15991 9.83304 3.72876C13.4715 1.29761 17.7491 0 22.125 0C26.5009 0 30.7785 1.29761 34.417 3.72876C38.0554 6.15991 40.8912 9.61523 42.5658 13.658C44.2404 17.7009 44.6786 22.1494 43.8249 26.4412C42.9712 30.7332 40.864 34.6753 37.7698 37.7695L22.125 53.4146ZM34.2938 34.2935C36.7002 31.887 38.339 28.8206 39.0028 25.4827C39.6667 22.1445 39.3258 18.6846 38.0233 15.5403C36.7208 12.396 34.5151 9.7085 31.6853 7.81763C28.8554 5.927 25.5284 4.91772 22.125 4.91772C18.7216 4.91772 15.3946 5.927 12.5648 7.81763C9.73489 9.7085 7.52927 12.396 6.22675 15.5403C4.92426 18.6846 4.58334 22.1445 5.24719 25.4827C5.91104 28.8206 7.5498 31.887 9.95627 34.2935L22.125 46.4624L34.2938 34.2935ZM22.125 27.0415C20.821 27.0415 19.5705 26.5234 18.6484 25.6013C17.7263 24.6794 17.2083 23.4287 17.2083 22.1248C17.2083 20.8208 17.7263 19.5703 18.6484 18.6482C19.5705 17.7261 20.821 17.2083 22.125 17.2083C23.429 17.2083 24.6796 17.7261 25.6016 18.6482C26.5237 19.5703 27.0417 20.8208 27.0417 22.1248C27.0417 23.4287 26.5237 24.6794 25.6016 25.6013C24.6796 26.5234 23.429 27.0415 22.125 27.0415Z" fill="#D2B574" fill-opacity="1.000000" fill-rule="nonzero"/>
</svg>
