<svg width="54.083313" height="39.348633" viewBox="0 0 54.0833 39.3486" fill="none" xmlns="http://www.w3.org/2000/svg" xmlns:xlink="http://www.w3.org/1999/xlink">
	<desc>
			Created with Pixso.
	</desc>
	<defs/>
	<path id="Vector" d="M19.5806 31.9585C19.2884 34.0093 18.2659 35.8857 16.7011 37.2437C15.1363 38.6011 13.1342 39.3486 11.0625 39.3486C8.99081 39.3486 6.98868 38.6011 5.42386 37.2437C3.85907 35.8857 2.83661 34.0093 2.54437 31.9585L0 31.9585L0 2.4585C0 1.80615 0.259003 1.18115 0.720032 0.720215C1.18106 0.258789 1.80634 0 2.45834 0L36.875 0C37.527 0 38.1523 0.258789 38.6133 0.720215C39.0743 1.18115 39.3333 1.80615 39.3333 2.4585L39.3333 7.375L46.7083 7.375L54.0833 17.3462L54.0833 31.9585L49.0806 31.9585C48.7884 34.0093 47.7659 35.8857 46.2011 37.2437C44.6363 38.6011 42.6342 39.3486 40.5625 39.3486C38.4908 39.3486 36.4887 38.6011 34.9239 37.2437C33.3591 35.8857 32.3366 34.0093 32.0444 31.9585L19.5806 31.9585ZM34.4167 4.9165L4.91666 4.9165L4.91666 24.7061C5.88663 23.7158 7.08148 22.9746 8.39951 22.5459C9.71756 22.1167 11.1198 22.0122 12.4868 22.2417C13.8539 22.4707 15.1452 23.0269 16.2511 23.8628C17.3569 24.6987 18.2445 25.7891 18.8382 27.0415L32.7868 27.0415C33.1998 26.1738 33.7529 25.3848 34.4167 24.7061L34.4167 4.9165ZM39.3333 19.6665L49.1667 19.6665L49.1667 18.9658L44.2303 12.2915L39.3333 12.2915L39.3333 19.6665ZM40.5625 34.4165C41.5408 34.4165 42.4791 34.0278 43.1708 33.3364C43.8626 32.6445 44.2512 31.7061 44.2512 30.728C44.2512 29.7495 43.8626 28.8115 43.1708 28.1196C42.4791 27.4277 41.5408 27.0391 40.5625 27.0391C39.5842 27.0391 38.6459 27.4277 37.9542 28.1196C37.2624 28.8115 36.8738 29.7495 36.8738 30.728C36.8738 31.7061 37.2624 32.6445 37.9542 33.3364C38.6459 34.0278 39.5842 34.4165 40.5625 34.4165ZM14.75 30.729C14.75 30.2451 14.6546 29.7656 14.4693 29.3179C14.284 28.8706 14.0124 28.4644 13.67 28.1216C13.3275 27.7793 12.921 27.5078 12.4736 27.3223C12.0262 27.1372 11.5468 27.0415 11.0625 27.0415C10.5782 27.0415 10.0988 27.1372 9.65137 27.3223C9.20398 27.5078 8.79745 27.7793 8.45505 28.1216C8.11264 28.4644 7.841 28.8706 7.6557 29.3179C7.47037 29.7656 7.375 30.2451 7.375 30.729C7.375 31.707 7.76349 32.645 8.45505 33.3364C9.14658 34.0283 10.0845 34.4165 11.0625 34.4165C12.0405 34.4165 12.9784 34.0283 13.67 33.3364C14.3615 32.645 14.75 31.707 14.75 30.729Z" fill="#D2B574" fill-opacity="1.000000" fill-rule="nonzero"/>
</svg>
