<svg width="54.088806" height="49.166748" viewBox="0 0 54.0888 49.1667" fill="none" xmlns="http://www.w3.org/2000/svg" xmlns:xlink="http://www.w3.org/1999/xlink">
	<desc>
			Created with Pixso.
	</desc>
	<defs/>
	<path id="Vector" d="M49.1667 27.6365L49.1667 44.25L51.625 44.25L51.625 49.1667L2.45834 49.1667L2.45834 44.25L4.91666 44.25L4.91666 27.6365C3.40326 26.6265 2.16263 25.2583 1.30493 23.6536C0.447235 22.0488 -0.00100708 20.2571 0 18.4375C0 16.4045 0.550659 14.4451 1.55612 12.7759L8.22311 1.22925C8.43887 0.855469 8.74921 0.545166 9.12292 0.329346C9.49661 0.113525 9.92053 0 10.3521 0L43.7338 0C44.1653 0 44.5892 0.113525 44.9629 0.329346C45.3366 0.545166 45.6469 0.855469 45.8627 1.22925L52.5051 12.739C53.9716 15.175 54.4431 18.0823 53.8213 20.8569C53.1995 23.6313 51.5325 26.0596 49.1667 27.6365ZM44.25 29.4312C42.5598 29.6208 40.8485 29.4177 39.2496 28.8379C37.6506 28.2581 36.207 27.3169 35.0312 26.0879C33.9993 27.1672 32.7593 28.0264 31.386 28.613C30.0129 29.2 28.535 29.5024 27.0417 29.5024C25.5487 29.5032 24.071 29.2014 22.6979 28.6155C21.3247 28.0293 20.0845 27.1711 19.0521 26.0928C17.8761 27.3213 16.4324 28.262 14.8335 28.8416C13.2345 29.4209 11.5234 29.6235 9.83334 29.4336L9.83334 44.25L44.25 44.25L44.25 29.4336L44.25 29.4312ZM11.7729 4.91675L5.79184 15.2737C5.21063 16.7097 5.19318 18.3123 5.74298 19.7605C6.29279 21.2087 7.36929 22.3962 8.75702 23.0847C10.1448 23.7732 11.7414 23.9124 13.2273 23.4741C14.7132 23.0359 15.9788 22.0527 16.7708 20.7212C17.5943 18.6636 20.5074 18.6636 21.3334 20.7212C21.7889 21.863 22.5764 22.8418 23.5939 23.5315C24.6115 24.2209 25.8124 24.5896 27.0417 24.5896C28.2709 24.5896 29.4719 24.2209 30.4894 23.5315C31.507 22.8418 32.2944 21.863 32.7499 20.7212C33.5735 18.6636 36.4866 18.6636 37.3126 20.7212C37.6316 21.5066 38.1096 22.2175 38.7166 22.8091C39.3236 23.4009 40.0464 23.8604 40.8397 24.1594C41.6329 24.4583 42.4793 24.5896 43.3258 24.5457C44.1723 24.5017 45.0005 24.283 45.7584 23.9033C46.5164 23.5239 47.1876 22.9917 47.7299 22.3401C48.2722 21.6887 48.6739 20.9321 48.9097 20.1179C49.1455 19.3037 49.2104 18.4497 49.1002 17.6091C48.99 16.7688 48.7071 15.9602 48.2693 15.2344L42.3079 4.91675L11.7754 4.91675L11.7729 4.91675Z" fill="#D2B574" fill-opacity="1.000000" fill-rule="nonzero"/>
</svg>
