<svg width="51.625000" height="51.625000" viewBox="0 0 51.625 51.625" fill="none" xmlns="http://www.w3.org/2000/svg" xmlns:xlink="http://www.w3.org/1999/xlink">
	<desc>
			Created with Pixso.
	</desc>
	<defs/>
	<path id="Vector" d="M0 51.625C0 46.4092 2.07202 41.4067 5.76023 37.7185C9.44845 34.0303 14.4507 31.9583 19.6667 31.9583C24.8826 31.9583 29.8849 34.0303 33.5731 37.7185C37.2613 41.4067 39.3333 46.4092 39.3333 51.625L34.4167 51.625C34.4167 47.7131 32.8627 43.9614 30.0965 41.1951C27.3303 38.429 23.5786 36.875 19.6667 36.875C15.7547 36.875 12.003 38.429 9.23684 41.1951C6.47068 43.9614 4.91667 47.7131 4.91667 51.625L0 51.625ZM19.6667 29.5C11.5173 29.5 4.91667 22.8994 4.91667 14.75C4.91667 6.60059 11.5173 0 19.6667 0C27.816 0 34.4167 6.60059 34.4167 14.75C34.4167 22.8994 27.816 29.5 19.6667 29.5ZM19.6667 24.5833C25.0996 24.5833 29.5 20.1829 29.5 14.75C29.5 9.31714 25.0996 4.91675 19.6667 4.91675C14.2337 4.91675 9.83333 9.31714 9.83333 14.75C9.83333 20.1829 14.2337 24.5833 19.6667 24.5833ZM40.0315 33.6865C43.4863 35.2424 46.4182 37.7629 48.4749 40.9453C50.5315 44.1274 51.6254 47.8359 51.625 51.625L46.7083 51.625C46.7089 48.7832 45.8886 46.0015 44.3461 43.6147C42.8036 41.2278 40.6045 39.3374 38.0132 38.1707L40.029 33.6865L40.0315 33.6865ZM38.3402 5.93188C40.817 6.95288 42.9347 8.68652 44.4246 10.9131C45.9145 13.1396 46.7093 15.7585 46.7083 18.4375C46.7094 21.811 45.4489 25.0632 43.1746 27.5549C40.9002 30.0469 37.7764 31.5981 34.4167 31.9043L34.4167 26.9556C36.2381 26.6948 37.928 25.8567 39.2382 24.5647C40.5484 23.2727 41.4099 21.5947 41.6962 19.7771C41.9825 17.9595 41.6785 16.0979 40.8289 14.4658C39.9794 12.8335 38.6289 11.5166 36.9758 10.7085L38.3402 5.93188Z" fill="#D2B574" fill-opacity="1.000000" fill-rule="nonzero"/>
</svg>
