<svg width="49.167572" height="45.442383" viewBox="0 0 49.1676 45.4424" fill="none" xmlns="http://www.w3.org/2000/svg" xmlns:xlink="http://www.w3.org/1999/xlink">
	<desc>
			Created with Pixso.
	</desc>
	<defs/>
	<path id="Vector" d="M24.5858 3.75879C30.3604 -1.42578 39.2842 -1.25391 44.8474 4.31934C50.4081 9.89453 50.5999 18.7744 45.4276 24.5659L24.5809 45.4424L3.73914 24.5659C-1.4332 18.7744 -1.23898 9.87988 4.31931 4.31934C9.88742 -1.24658 18.794 -1.43311 24.5858 3.75879ZM41.3664 7.79297C37.6789 4.10059 31.7297 3.95068 27.8701 7.4165L24.5883 10.3618L21.3039 7.41943C17.4321 3.94824 11.4952 4.10059 7.79785 7.79785C4.13492 11.4609 3.95056 17.3237 7.32584 21.1982L24.5833 38.4829L41.8409 21.2007C45.2186 17.3237 45.0342 11.4683 41.3664 7.79297Z" fill="#D2B574" fill-opacity="1.000000" fill-rule="nonzero"/>
</svg>
