<svg width="48.000000" height="48.000000" viewBox="0 0 48 48" fill="none" xmlns="http://www.w3.org/2000/svg" xmlns:xlink="http://www.w3.org/1999/xlink">
	<desc>
			Created with Pixso.
	</desc>
	<defs/>
	<rect id="WhatsApp_black" width="48.000000" height="48.000000" fill="#FFFFFF" fill-opacity="0"/>
	<path id="Combined-Shape" d="M0 24C0 37.2549 10.7451 48 24 48C37.2549 48 48 37.2549 48 24C48 10.7451 37.2549 0 24 0C10.7451 0 0 10.7451 0 24ZM39.0623 23.0815C39.0591 30.9482 32.6594 37.3494 24.791 37.3525L24.7852 37.3525C22.3967 37.3518 20.0498 36.7524 17.9653 35.6155L10.3999 37.6001L12.4246 30.2048C11.1758 28.0405 10.5186 25.5854 10.5195 23.0703C10.5227 15.2017 16.9248 8.80005 24.791 8.80005C28.6086 8.80176 32.1919 10.2878 34.8862 12.9854C37.5806 15.6829 39.0637 19.2683 39.0623 23.0815Z" clip-rule="evenodd" fill="#D2B574" fill-opacity="1.000000" fill-rule="evenodd"/>
	<path id="Combined-Shape" d="M18.3159 33.032L13.8264 34.2095L15.0249 29.8325L14.7427 29.3835C13.5554 27.4951 12.9282 25.3125 12.9292 23.071C12.9319 16.531 18.2529 11.2104 24.7957 11.2104C27.9641 11.2114 30.9421 12.447 33.1816 14.689C35.4211 16.9312 36.6538 19.9111 36.6526 23.0808C36.6499 29.6211 31.3289 34.9424 24.791 34.9424L24.7864 34.9424C22.6577 34.9417 20.5703 34.3696 18.749 33.2891L18.3159 33.032ZM31.2974 26.0586C31.6541 26.2371 31.8916 26.3264 31.9807 26.4751C32.0698 26.6238 32.0698 27.3379 31.7729 28.1709C31.4756 29.0039 30.051 29.7639 29.366 29.8665C28.7517 29.9583 27.9741 29.9966 27.1199 29.7251C26.6021 29.5608 25.938 29.3413 25.0872 28.9739C21.51 27.4292 19.1738 23.8276 18.9956 23.5896C18.8174 23.3516 17.5396 21.656 17.5396 19.9009C17.5396 18.1458 18.4607 17.283 18.7876 16.926C19.1145 16.5691 19.5007 16.4797 19.7385 16.4797C19.9761 16.4797 20.2141 16.4819 20.4219 16.4924C20.4475 16.4937 20.4741 16.4934 20.5017 16.4934C20.7095 16.4922 20.9688 16.4907 21.2241 17.1045C21.5212 17.8186 22.2344 19.5737 22.3237 19.7522C22.4128 19.9307 22.4722 20.1389 22.3533 20.377C22.2344 20.6147 22.175 20.7637 21.9968 20.9717C21.8186 21.1799 21.6223 21.4368 21.4619 21.5964C21.2834 21.7744 21.0977 21.9673 21.3057 22.3242C21.5137 22.6812 22.2292 23.8489 23.2893 24.7944C24.6514 26.0093 25.8003 26.386 26.157 26.5645C26.5134 26.7429 26.7214 26.7131 26.9294 26.4751C27.1375 26.2371 27.8208 25.4338 28.0583 25.0769C28.2961 24.72 28.5339 24.7795 28.8608 24.8984C29.1877 25.0176 30.9409 25.8801 31.2974 26.0586Z" clip-rule="evenodd" fill="#D2B574" fill-opacity="1.000000" fill-rule="evenodd"/>
</svg>
