<svg width="184.000000" height="27.000000" viewBox="0 0 184 27" fill="none" xmlns="http://www.w3.org/2000/svg" xmlns:xlink="http://www.w3.org/1999/xlink">
	<desc>
			Created with Pixso.
	</desc>
	<defs>
		<clipPath id="clip395_400">
			<rect id="123gold-logo-gold 1" width="184.000000" height="27.000000" fill="white" fill-opacity="0"/>
		</clipPath>
	</defs>
	<rect id="123gold-logo-gold 1" width="184.000000" height="27.000000" fill="#FFFFFF" fill-opacity="0"/>
	<g clip-path="url(#clip395_400)">
		<path id="Vector" d="M125.096 24.0181L113.128 24.0181C112.123 24.0317 111.135 23.7524 110.286 23.2144C109.346 22.5654 108.585 21.4819 108.579 19.4883L108.579 7.48193C108.571 6.47412 108.856 5.48535 109.4 4.63672C110.054 3.69629 111.13 2.93457 113.128 2.92285L125.096 2.92285C126.105 2.92041 127.094 3.20752 127.944 3.75C128.878 4.40479 129.639 5.48828 129.651 7.48193L129.651 19.4702C129.651 20.4761 129.364 21.4609 128.824 22.3096C128.176 23.25 127.094 24.0117 125.096 24.0181ZM129.996 1.69629C128.598 0.598145 126.873 0.000488281 125.096 0L113.128 0C112.031 -0.0483398 110.938 0.15918 109.935 0.606445C108.932 1.0542 108.047 1.72852 107.349 2.57764C106.253 3.97656 105.658 5.7041 105.66 7.48193L105.66 19.4702C105.609 20.5654 105.813 21.6577 106.256 22.6606C106.699 23.6636 107.368 24.5498 108.211 25.25C109.61 26.3452 111.334 26.9424 113.11 26.9463L125.102 26.9463C126.196 26.9951 127.286 26.791 128.288 26.3501C129.29 25.9097 130.178 25.2437 130.882 24.4048C131.983 22.9956 132.583 21.2593 132.588 19.4702L132.588 7.48193C132.631 6.38428 132.421 5.29053 131.974 4.28711C131.526 3.28369 130.853 2.39697 130.008 1.69629L129.996 1.69629Z" fill="#B48C50" fill-opacity="1.000000" fill-rule="nonzero"/>
		<path id="Vector" d="M61.7338 1.78613C60.5178 0.686035 58.9429 0.0678711 57.3042 0.0478516L39.8359 0.0478516L39.8359 2.97656L57.3042 2.97656C58.6183 3.01807 61.3235 3.57178 61.3413 7.52979C61.3591 11.4883 58.6123 12.0537 57.3042 12.0894L45.2405 12.0894L45.2405 15.0122L57.3042 15.0122C58.6241 15.0537 61.3235 15.6074 61.3413 19.5181C61.3591 23.4287 58.6183 24.0361 57.3042 24.0718L39.8359 24.0718L39.8359 27L57.3042 27C58.9392 26.9839 60.5129 26.375 61.7338 25.2861C63.0715 24.0957 64.0406 22.1909 64.0347 19.5181C64.0347 17.2681 63.3271 15.6016 61.5732 13.5659C63.3569 11.4644 64.0466 9.80371 64.0347 7.54785C64.0347 4.875 63.0715 2.97656 61.7338 1.77979L61.7338 1.78613Z" fill="#B48C50" fill-opacity="1.000000" fill-rule="nonzero"/>
		<path id="Vector" d="M94.2087 12.3989L94.2087 14.9585L99.2922 14.9585L99.2922 24.0239C98.454 24.0239 96.1292 24.0239 92.2407 24.0239C89.7396 24.0239 86.5845 24.0239 82.7753 24.0239C81.271 23.9883 78.2268 23.3989 78.2209 19.4702L78.2209 7.47607C78.2566 5.97607 78.8512 2.92871 82.7753 2.92285L100.761 2.92285L100.761 0L82.7693 0C77.3588 0 75.3016 4.375 75.2957 7.47607L75.2957 19.4644C75.2957 24.8809 79.6598 26.9346 82.7693 26.9463L102.212 26.9463L102.212 12.0356L94.2087 12.0356L94.2087 12.3989Z" fill="#B48C50" fill-opacity="1.000000" fill-rule="nonzero"/>
		<path id="Vector" d="M138.944 19.4644L138.944 0L136.019 0L136.019 19.4644C136.019 24.8809 140.383 26.9404 143.486 26.9463L154.307 26.9463L154.307 24.0181L143.486 24.0181C141.988 23.9883 138.95 23.3931 138.944 19.4644Z" fill="#B48C50" fill-opacity="1.000000" fill-rule="nonzero"/>
		<path id="Vector" d="M1.07617 0L0 0L0 2.92285L1.07617 2.92285C2.57446 2.97607 5.61865 3.57129 5.62463 7.48193L5.62463 26.9463L8.5498 26.9463L8.5498 7.48193C8.53796 2.05957 4.16199 0 1.07617 0Z" fill="#B48C50" fill-opacity="1.000000" fill-rule="nonzero"/>
		<path id="Vector" d="M176.532 0L157.025 0L157.025 2.92285L176.532 2.92285C180.451 2.92285 181.039 5.97607 181.075 7.48193L181.075 19.4644C181.075 23.3867 177.977 23.9883 176.479 24.0181C172.662 24.0181 169.505 24.0181 167.007 24.0181C163.113 24.0181 160.788 24.0181 159.95 24.0181L159.95 5.82715L157.025 5.82715L157.025 26.9463L176.532 26.9463C179.636 26.9463 183.994 24.8809 184 19.4644L184 7.48193C183.994 4.36914 181.937 0 176.532 0Z" fill="#B48C50" fill-opacity="1.000000" fill-rule="nonzero"/>
		<path id="Vector" d="M29.6925 0L14.3706 0L14.3706 2.92285L29.6925 2.92285C33.147 2.92285 33.7593 5.89893 33.8129 7.39307C33.7593 8.88672 33.147 11.8633 29.6925 11.8633L18.5563 11.9048C17.521 11.8618 16.491 12.0752 15.5576 12.5254C14.6243 12.9761 13.8163 13.6504 13.2052 14.4883C12.2012 15.9214 11.6635 17.6304 11.6653 19.3809L11.6653 19.7441C11.8198 22.7681 13.4193 27.0181 18.2054 27.0298L36.2684 27.0298L36.2684 24.0713L18.2471 24.0713C17.6044 24.1191 16.9618 23.9751 16.4009 23.6572C15.84 23.3394 15.3859 22.8618 15.0959 22.2856C14.6564 21.356 14.4327 20.3384 14.4419 19.3096C14.4895 17.8213 15.09 14.8096 18.5623 14.8154L29.6925 14.8154C34.449 14.8154 36.3635 10.8989 36.5419 7.875L36.5419 7.50586C36.543 5.75732 36.0052 4.05078 35.002 2.61914C34.3909 1.78076 33.583 1.10645 32.6498 0.654785C31.7166 0.203125 30.6865 -0.0117188 29.6509 0.0297852L29.6925 0Z" fill="#B48C50" fill-opacity="1.000000" fill-rule="nonzero"/>
	</g>
</svg>
