<svg width="59.000000" height="59.000000" viewBox="0 0 59 59" fill="none" xmlns="http://www.w3.org/2000/svg" xmlns:xlink="http://www.w3.org/1999/xlink">
	<desc>
			Created with Pixso.
	</desc>
	<defs>
		<clipPath id="clip27_41">
			<rect id="Frame" width="59.000000" height="59.000000" fill="white" fill-opacity="0"/>
		</clipPath>
	</defs>
	<rect id="Frame" width="59.000000" height="59.000000" fill="#FFFFFF" fill-opacity="0"/>
	<g clip-path="url(#clip27_41)">
		<path id="Vector" d="M51.6251 32.5532L51.6251 49.1667L54.0834 49.1667L54.0834 54.0835L4.91672 54.0835L4.91672 49.1667L7.37503 49.1667L7.37503 32.5532C5.86163 31.5432 4.621 30.175 3.76331 28.5703C2.90561 26.9656 2.45737 25.1738 2.45837 23.3542C2.45837 21.3213 3.00903 19.3618 4.0145 17.6926L10.6815 6.146C10.8972 5.77222 11.2076 5.46191 11.5813 5.24609C11.955 5.03027 12.3789 4.91675 12.8104 4.91675L46.1921 4.91675C46.6237 4.91675 47.0475 5.03027 47.4213 5.24609C47.795 5.46191 48.1053 5.77222 48.321 6.146L54.9634 17.6558C56.43 20.0918 56.9014 22.999 56.2797 25.7737C55.6579 28.5481 53.9908 30.9763 51.6251 32.5532ZM46.7084 34.3479C45.0181 34.5376 43.3069 34.3345 41.7079 33.7546C40.1089 33.1748 38.6654 32.2336 37.4896 31.0046C36.4576 32.084 35.2177 32.9431 33.8444 33.5298C32.4713 34.1167 30.9934 34.4192 29.5001 34.4192C28.0071 34.4199 26.5294 34.1182 25.1562 33.5322C23.7831 32.946 22.5428 32.0879 21.5104 31.0095C20.3345 32.238 18.8908 33.1787 17.2918 33.7583C15.6929 34.3376 13.9818 34.5403 12.2917 34.3503L12.2917 49.1667L46.7084 49.1667L46.7084 34.3503L46.7084 34.3479ZM14.2313 9.8335L8.25021 20.1904C7.66901 21.6265 7.65155 23.229 8.20135 24.6772C8.75116 26.1255 9.82767 27.313 11.2154 28.0015C12.6031 28.6899 14.1997 28.8291 15.6856 28.3909C17.1715 27.9526 18.4371 26.9695 19.2291 25.6379C20.0527 23.5803 22.9658 23.5803 23.7918 25.6379C24.2473 26.7798 25.0347 27.7585 26.0523 28.4482C27.0699 29.1377 28.2708 29.5063 29.5001 29.5063C30.7292 29.5063 31.9302 29.1377 32.9478 28.4482C33.9653 27.7585 34.7527 26.7798 35.2083 25.6379C36.0319 23.5803 38.9449 23.5803 39.7709 25.6379C40.09 26.4233 40.568 27.1343 41.175 27.7258C41.782 28.3176 42.5048 28.7771 43.298 29.0762C44.0912 29.375 44.9377 29.5063 45.7842 29.4624C46.6307 29.4185 47.4589 29.1997 48.2168 28.8201C48.9747 28.4407 49.6459 27.9084 50.1882 27.2568C50.7306 26.6055 51.1323 25.8489 51.3681 25.0347C51.6039 24.2205 51.6688 23.3665 51.5585 22.5259C51.4484 21.6855 51.1655 20.877 50.7277 20.1511L44.7663 9.8335L14.2338 9.8335L14.2313 9.8335Z" fill="#D2B574" fill-opacity="1.000000" fill-rule="nonzero"/>
	</g>
</svg>
