<svg width="679.327637" height="112.082031" viewBox="0 0 679.328 112.082" fill="none" xmlns="http://www.w3.org/2000/svg" xmlns:xlink="http://www.w3.org/1999/xlink">
	<desc>
			Created with Pixso.
	</desc>
	<defs>
		<clipPath id="clip395_1028">
			<rect id="ringsize" width="112.081909" height="112.081909" fill="white" fill-opacity="0"/>
		</clipPath>
		<clipPath id="clip395_1066">
			<rect id="tips" width="112.081909" height="112.081909" transform="translate(189.081909 0.000000)" fill="white" fill-opacity="0"/>
		</clipPath>
		<clipPath id="clip395_1055">
			<rect id="alloy" width="112.081909" height="112.081909" transform="translate(378.163818 0.000000)" fill="white" fill-opacity="0"/>
		</clipPath>
		<clipPath id="clip395_1038">
			<rect id="engraving" width="112.081909" height="112.081909" transform="translate(567.245728 0.000000)" fill="white" fill-opacity="0"/>
		</clipPath>
	</defs>
	<rect id="ringsize" width="112.081909" height="112.081909" fill="#FFFFFF" fill-opacity="0"/>
	<g clip-path="url(#clip395_1028)">
		<path id="Ellipse 69" d="M111.803 56.041C111.803 86.8379 86.8378 111.803 56.041 111.803C25.2443 111.803 0.278564 86.8379 0.278564 56.041C0.278564 25.2441 25.2443 0.27832 56.041 0.27832C86.8378 0.27832 111.803 25.2441 111.803 56.041Z" fill="#F0F0F0" fill-opacity="1.000000" fill-rule="evenodd"/>
		<path id="Pfad 4410" d="M56.041 112.082C44.9572 112.082 34.1222 108.795 24.9062 102.638C15.6904 96.4795 8.50745 87.7275 4.26587 77.4873C0.024292 67.2471 -1.08557 55.9785 1.07678 45.1084C3.23914 34.2373 8.57654 24.252 16.4141 16.4141C24.2515 8.57617 34.2371 3.23926 45.1079 1.07715C55.9788 -1.08594 67.2468 0.0244141 77.4869 4.26562C87.7271 8.50781 96.4795 15.6904 102.637 24.9062C108.795 34.1221 112.082 44.957 112.082 56.041C112.082 70.9043 106.178 85.1582 95.668 95.668C85.1582 106.178 70.9039 112.082 56.041 112.082ZM56.041 0.557617C45.0674 0.557617 34.3403 3.81152 25.2162 9.9082C16.0919 16.0049 8.98059 24.6699 4.78113 34.8086C0.581787 44.9463 -0.516968 56.1025 1.6239 66.8652C3.76465 77.6279 9.04895 87.5137 16.8083 95.2734C24.5679 103.033 34.4541 108.317 45.2168 110.458C55.9795 112.599 67.1353 111.5 77.2734 107.301C87.4117 103.102 96.077 95.9902 102.174 86.8662C108.27 77.7412 111.524 67.0146 111.524 56.041C111.524 48.7549 110.089 41.54 107.301 34.8086C104.512 28.0771 100.426 21.9609 95.2736 16.8086C90.1215 11.6562 84.005 7.56934 77.2734 4.78125C70.542 1.99316 63.3271 0.557617 56.041 0.557617Z" fill="#E3E3E3" fill-opacity="1.000000" fill-rule="nonzero"/>
		<path id="Pfad 4411" d="M41.8763 32.6211C46.509 32.6211 51.0376 33.9951 54.8895 36.5684C58.7415 39.1426 61.7437 42.8008 63.5165 47.0811C65.2893 51.3604 65.7532 56.0703 64.8494 60.6143C63.9457 65.1572 61.7148 69.3311 58.439 72.6074C55.1632 75.8828 50.9896 78.1133 46.446 79.0176C41.9023 79.9209 37.1927 79.457 32.9127 77.6846C28.6327 75.9121 24.9745 72.9092 22.4008 69.0576C19.827 65.2061 18.4532 60.6768 18.4532 56.0439C18.4532 49.832 20.921 43.874 25.3137 39.4814C29.7064 35.0889 35.6642 32.6211 41.8763 32.6211ZM41.8763 28.1602C36.3621 28.1602 30.9716 29.7949 26.3866 32.8594C21.8016 35.9229 18.228 40.2773 16.1178 45.3711C14.0076 50.4658 13.4554 56.0723 14.5312 61.4805C15.6071 66.8887 18.2625 71.8564 22.1616 75.7559C26.0608 79.6553 31.0287 82.3105 36.4371 83.3857C41.8455 84.4619 47.4514 83.9102 52.5459 81.7998C57.6405 79.6895 61.9949 76.1162 65.0585 71.5312C68.1221 66.9463 69.7572 61.5557 69.7572 56.041C69.7572 48.6465 66.8198 41.5547 61.5912 36.3262C56.3624 31.0977 49.2709 28.1602 41.8763 28.1602Z" fill="#444444" fill-opacity="1.000000" fill-rule="nonzero"/>
		<path id="Pfad 4412" d="M93.1775 83.9219L64.8484 83.9219C64.5574 83.9141 64.2806 83.7939 64.0774 83.5859C63.874 83.377 63.7603 83.0977 63.7603 82.8066C63.7603 82.5156 63.874 82.2363 64.0774 82.0273C64.2806 81.8193 64.5574 81.6982 64.8484 81.6914L93.1775 81.6914C93.4685 81.6982 93.7452 81.8193 93.9486 82.0273C94.1519 82.2363 94.2656 82.5156 94.2656 82.8066C94.2656 83.0977 94.1519 83.377 93.9486 83.5859C93.7452 83.7939 93.4685 83.9141 93.1775 83.9219Z" fill="#444444" fill-opacity="1.000000" fill-rule="nonzero"/>
		<path id="Pfad 4413" d="M93.1777 29.2754L64.8485 29.2754C64.6997 29.2793 64.5518 29.2529 64.4133 29.1982C64.2748 29.1445 64.1486 29.0625 64.0421 28.959C63.9357 28.8545 63.851 28.7305 63.7932 28.5938C63.7355 28.4561 63.7057 28.3096 63.7057 28.1602C63.7057 28.0117 63.7355 27.8643 63.7932 27.7275C63.851 27.5898 63.9357 27.4658 64.0421 27.3623C64.1486 27.2578 64.2748 27.1768 64.4133 27.1221C64.5518 27.0674 64.6997 27.042 64.8485 27.0449L93.1777 27.0449C93.3264 27.042 93.4744 27.0674 93.6129 27.1221C93.7513 27.1768 93.8776 27.2578 93.9841 27.3623C94.0906 27.4658 94.1752 27.5898 94.2329 27.7275C94.2908 27.8643 94.3206 28.0117 94.3206 28.1602C94.3206 28.3096 94.2908 28.4561 94.2329 28.5938C94.1752 28.7305 94.0906 28.8545 93.9841 28.959C93.8776 29.0625 93.7513 29.1445 93.6129 29.1982C93.4744 29.2529 93.3264 29.2793 93.1777 29.2754Z" fill="#444444" fill-opacity="1.000000" fill-rule="nonzero"/>
		<path id="Pfad 4414" d="M86.6702 40.4795C86.3743 40.4795 86.0906 40.3623 85.8813 40.1533C85.6722 39.9443 85.5547 39.6602 85.5547 39.3643L85.5547 28.1602C85.5618 27.8691 85.6825 27.5928 85.8907 27.3896C86.0991 27.1865 86.3787 27.0723 86.6698 27.0723C86.9609 27.0723 87.2405 27.1865 87.4489 27.3896C87.6571 27.5928 87.7778 27.8691 87.7849 28.1602L87.7849 39.3643C87.7849 39.6602 87.6675 39.9443 87.4585 40.1533C87.2494 40.3623 86.9658 40.4795 86.6702 40.4795Z" fill="#444444" fill-opacity="1.000000" fill-rule="nonzero"/>
		<path id="Pfad 4415" d="M86.6703 83.957C86.5238 83.957 86.3787 83.9277 86.2434 83.8721C86.108 83.8154 85.9851 83.7334 85.8815 83.6299C85.778 83.5264 85.6958 83.4033 85.6396 83.2676C85.5836 83.1328 85.5548 82.9873 85.5548 82.8408L85.5548 71.6367C85.5511 71.4883 85.5773 71.3398 85.6317 71.2021C85.686 71.0635 85.7676 70.9375 85.8716 70.8311C85.9755 70.7236 86.0996 70.6396 86.2367 70.582C86.3738 70.5234 86.5211 70.4941 86.6699 70.4941C86.8187 70.4941 86.9659 70.5234 87.103 70.582C87.2402 70.6396 87.3644 70.7236 87.4683 70.8311C87.5721 70.9375 87.6537 71.0635 87.7081 71.2021C87.7626 71.3398 87.7887 71.4883 87.785 71.6367L87.785 82.8418C87.785 83.1377 87.6675 83.4209 87.4583 83.6309C87.2491 83.8398 86.9655 83.957 86.6696 83.957L86.6703 83.957Z" fill="#444444" fill-opacity="1.000000" fill-rule="nonzero"/>
		<path id="Pfad 4416" d="M91.8998 44.8936C90.8018 44.9082 89.7278 45.2178 88.7905 45.79C87.8534 46.3623 87.0876 47.1758 86.5736 48.1465C86.0593 47.1758 85.2935 46.3623 84.3561 45.79C83.4188 45.2178 82.3447 44.9082 81.2466 44.8936C77.8318 44.8936 75.0634 47.8535 75.0634 51.5059C75.0553 52.4814 75.2578 53.4463 75.6571 54.3369C76.0563 55.2266 76.6429 56.0195 77.3768 56.6621L86.5715 65.8564L95.7662 56.6621C96.5001 56.0195 97.0868 55.2266 97.4861 54.3369C97.8853 53.4463 98.0878 52.4814 98.0797 51.5059C98.0872 47.8535 95.3186 44.8936 91.8998 44.8936ZM78.7708 47.6523C78.8085 47.6094 78.8501 47.5693 78.8949 47.5342C79.1002 47.2764 79.3804 47.0889 79.6968 46.998C80.0131 46.9072 80.3499 46.917 80.6606 47.0254C80.9713 47.1348 81.2405 47.3369 81.4308 47.6055C81.6212 47.874 81.7234 48.1953 81.7231 48.5244C81.7231 49.4014 80.8789 49.6484 80.1359 50.1123C78.2332 51.2988 79.4426 54.0664 80.1272 54.7783C80.495 55.1602 81.103 55.5615 80.7212 55.9287C80.3392 56.2959 79.9379 56.0771 79.5708 55.6953C78.1788 54.248 77.5748 53.2422 77.3734 51.8457C77.275 51.0859 77.3495 50.3145 77.5916 49.5889C77.8335 48.8623 78.2367 48.2012 78.7708 47.6523Z" fill="#A04F55" fill-opacity="1.000000" fill-rule="evenodd"/>
	</g>
	<rect id="tips" width="112.081909" height="112.081909" transform="translate(189.081909 0.000000)" fill="#FFFFFF" fill-opacity="0"/>
	<g clip-path="url(#clip395_1066)">
		<path id="Ellipse 70" d="M300.885 56.041C300.885 86.8379 275.92 111.803 245.123 111.803C214.326 111.803 189.36 86.8379 189.36 56.041C189.36 25.2441 214.326 0.27832 245.123 0.27832C275.92 0.27832 300.885 25.2441 300.885 56.041Z" fill="#F0F0F0" fill-opacity="1.000000" fill-rule="evenodd"/>
		<path id="Pfad 4417" d="M245.123 112.082C234.039 112.082 223.204 108.795 213.988 102.638C204.772 96.4795 197.589 87.7275 193.348 77.4873C189.106 67.2471 187.996 55.9785 190.159 45.1084C192.321 34.2373 197.658 24.252 205.496 16.4141C213.333 8.57617 223.319 3.23926 234.19 1.07715C245.061 -1.08594 256.329 0.0244141 266.569 4.26562C276.809 8.50781 285.561 15.6904 291.719 24.9062C297.877 34.1221 301.164 44.957 301.164 56.041C301.164 70.9043 295.259 85.1582 284.75 95.668C274.24 106.178 259.986 112.082 245.123 112.082ZM245.123 0.557617C234.149 0.557617 223.422 3.81152 214.298 9.9082C205.174 16.0049 198.062 24.6699 193.863 34.8086C189.664 44.9463 188.565 56.1025 190.706 66.8652C192.846 77.6279 198.131 87.5137 205.89 95.2734C213.65 103.033 223.536 108.317 234.299 110.458C245.061 112.599 256.217 111.5 266.355 107.301C276.494 103.102 285.159 95.9902 291.255 86.8662C297.352 77.7412 300.606 67.0146 300.606 56.041C300.606 48.7549 299.171 41.54 296.383 34.8086C293.594 28.0771 289.507 21.9609 284.355 16.8086C279.203 11.6562 273.087 7.56934 266.355 4.78125C259.624 1.99316 252.409 0.557617 245.123 0.557617Z" fill="#E3E3E3" fill-opacity="1.000000" fill-rule="nonzero"/>
		<path id="Pfad 4418" d="M244.154 30.5156C243.859 30.5156 243.575 30.3984 243.366 30.1895C243.156 29.9795 243.039 29.6963 243.039 29.4004L243.039 22.5967C243.035 22.4482 243.061 22.2998 243.116 22.1621C243.17 22.0234 243.252 21.8975 243.356 21.791C243.46 21.6836 243.584 21.5996 243.721 21.542C243.858 21.4834 244.005 21.4541 244.154 21.4541C244.303 21.4541 244.45 21.4834 244.587 21.542C244.724 21.5996 244.849 21.6836 244.952 21.791C245.056 21.8975 245.138 22.0234 245.192 22.1621C245.247 22.2998 245.273 22.4482 245.269 22.5967L245.269 29.4004C245.269 29.6963 245.152 29.9795 244.943 30.1885C244.734 30.3984 244.45 30.5156 244.154 30.5156Z" fill="#A04F55" fill-opacity="1.000000" fill-rule="nonzero"/>
		<path id="Pfad 4419" d="M221.808 40.2383C221.661 40.2383 221.516 40.21 221.381 40.1533C221.245 40.0977 221.123 40.0156 221.019 39.9111L216.208 35.1006C216.102 34.998 216.016 34.875 215.958 34.7383C215.899 34.6025 215.868 34.4561 215.867 34.3076C215.865 34.1592 215.893 34.0127 215.949 33.875C216.006 33.7383 216.089 33.6133 216.193 33.5088C216.298 33.4033 216.423 33.3203 216.56 33.2646C216.697 33.208 216.844 33.1807 216.993 33.1816C217.141 33.1826 217.287 33.2139 217.423 33.2725C217.56 33.3311 217.683 33.417 217.786 33.5234L222.596 38.334C222.752 38.4902 222.859 38.6895 222.901 38.9053C222.945 39.1221 222.922 39.3457 222.838 39.5498C222.754 39.7539 222.611 39.9277 222.427 40.0498C222.244 40.1729 222.028 40.2383 221.808 40.2383Z" fill="#A04F55" fill-opacity="1.000000" fill-rule="nonzero"/>
		<path id="Pfad 4420" d="M212.881 62.915L206.077 62.915C205.786 62.9072 205.51 62.7871 205.306 62.5791C205.103 62.3701 204.989 62.0908 204.989 61.7998C204.989 61.5088 205.103 61.2295 205.306 61.0205C205.51 60.8125 205.786 60.6914 206.077 60.6846L212.881 60.6846C213.172 60.6914 213.449 60.8125 213.652 61.0205C213.856 61.2295 213.97 61.5088 213.97 61.7998C213.97 62.0908 213.856 62.3701 213.652 62.5791C213.449 62.7871 213.172 62.9072 212.881 62.915Z" fill="#A04F55" fill-opacity="1.000000" fill-rule="nonzero"/>
		<path id="Pfad 4421" d="M283.358 61.79L276.554 61.79C276.405 61.7939 276.257 61.7676 276.119 61.7129C275.98 61.6592 275.854 61.5771 275.748 61.4736C275.641 61.3691 275.557 61.2451 275.499 61.1084C275.441 60.9707 275.411 60.8242 275.411 60.6748C275.411 60.5264 275.441 60.3789 275.499 60.2422C275.557 60.1045 275.641 59.9805 275.748 59.877C275.854 59.7725 275.98 59.6914 276.119 59.6367C276.257 59.582 276.405 59.5566 276.554 59.5596L283.358 59.5596C283.649 59.5674 283.925 59.6875 284.129 59.8965C284.332 60.1045 284.446 60.3838 284.446 60.6748C284.446 60.9658 284.332 61.2461 284.129 61.4541C283.925 61.6621 283.649 61.7832 283.358 61.79Z" fill="#A04F55" fill-opacity="1.000000" fill-rule="nonzero"/>
		<path id="Pfad 4422" d="M266.831 39.4443C266.611 39.4443 266.395 39.3789 266.212 39.2559C266.028 39.1338 265.885 38.96 265.801 38.7559C265.717 38.5518 265.694 38.3281 265.737 38.1113C265.781 37.8955 265.887 37.6963 266.043 37.54L270.853 32.7295C270.956 32.623 271.079 32.5371 271.215 32.4785C271.352 32.4199 271.498 32.3887 271.646 32.3877C271.795 32.3867 271.942 32.4141 272.079 32.4707C272.216 32.5264 272.341 32.6094 272.446 32.7148C272.551 32.8193 272.633 32.9443 272.69 33.0811C272.746 33.2188 272.774 33.3652 272.772 33.5137C272.771 33.6621 272.74 33.8086 272.681 33.9443C272.623 34.0811 272.537 34.2041 272.431 34.3066L267.62 39.1172C267.516 39.2207 267.394 39.3027 267.258 39.3594C267.123 39.415 266.978 39.4443 266.831 39.4434L266.831 39.4443Z" fill="#A04F55" fill-opacity="1.000000" fill-rule="nonzero"/>
		<path id="Pfad 4423" d="M233.891 80.4414L224.198 80.4414C223.903 80.4414 223.619 80.3242 223.41 80.1143C223.201 79.9053 223.083 79.6221 223.083 79.3262L223.083 52.1025C223.083 51.9561 223.112 51.8115 223.168 51.6758C223.224 51.541 223.306 51.418 223.41 51.3145C223.513 51.21 223.636 51.1279 223.772 51.0723C223.907 51.0166 224.052 50.9873 224.198 50.9873L233.891 50.9873C234.037 50.9873 234.182 51.0166 234.317 51.0723C234.453 51.1279 234.576 51.21 234.679 51.3145C234.783 51.418 234.865 51.541 234.921 51.6758C234.977 51.8115 235.006 51.9561 235.006 52.1025L235.006 79.3232C235.006 79.4697 234.978 79.6152 234.922 79.751C234.866 79.8867 234.784 80.0098 234.68 80.1133C234.577 80.2178 234.453 80.2998 234.318 80.3564C234.182 80.4121 234.037 80.4414 233.891 80.4414ZM225.315 78.2109L232.775 78.2109L232.775 53.2207L225.315 53.2207L225.315 78.2109Z" fill="#444444" fill-opacity="1.000000" fill-rule="nonzero"/>
		<path id="Pfad 4424" d="M267.897 61.2373C267.891 60.2227 267.529 59.2422 266.873 58.4678C267.661 57.9668 268.264 57.2227 268.594 56.3486C268.923 55.4746 268.959 54.5176 268.698 53.6211C268.436 52.7246 267.891 51.9375 267.143 51.377C266.396 50.8174 265.487 50.5146 264.553 50.5156L255.471 50.5156C253.896 50.5156 253.896 50.2578 253.896 49.0225C253.945 47.7832 254.29 46.5732 254.903 45.4951C255.836 43.8145 256.271 41.9033 256.156 39.9844C256.144 36.0771 254.427 34.5859 253.405 34.0439C252.752 33.7031 252.02 33.5439 251.284 33.584C250.549 33.624 249.838 33.8613 249.226 34.2715C249.152 34.3232 249.085 34.3828 249.025 34.4502C248.425 35.2656 248.045 36.2207 247.92 37.2256C247.693 38.4795 247.272 39.6904 246.673 40.8154C245.973 41.9756 245.154 43.0605 244.229 44.0518C243.049 45.2158 242.15 46.6338 241.602 48.1982C240.75 50.3066 239.26 52.0977 237.342 53.3203L235.006 53.3203L235.006 55.5508L237.59 55.5508C237.74 55.5508 237.888 55.5205 238.025 55.4619C239.811 54.7051 242.328 52.2412 243.682 49.0049C243.699 48.9658 243.713 48.9268 243.724 48.8867C244.109 47.5693 244.901 46.668 245.905 45.5273C246.928 44.4229 247.834 43.2148 248.608 41.9238C249.32 40.6074 249.821 39.1865 250.094 37.7148C250.185 37.1338 250.359 36.5684 250.611 36.0371C250.878 35.8896 251.178 35.8115 251.484 35.8076C251.789 35.8047 252.091 35.877 252.362 36.0186C253.357 36.5449 253.928 38.0068 253.928 40.0303C253.928 40.0586 253.928 40.0879 253.928 40.1162C254.021 41.6631 253.658 43.2031 252.883 44.5459C252.128 45.9199 251.709 47.4551 251.662 49.0225C251.662 51.6328 252.803 52.7461 255.467 52.7461L264.549 52.7461C264.826 52.7412 265.102 52.792 265.359 52.8945C265.617 52.9971 265.852 53.1494 266.049 53.3438C266.247 53.5381 266.404 53.7705 266.511 54.0254C266.619 54.2812 266.674 54.5557 266.674 54.833C266.674 55.1104 266.619 55.3848 266.511 55.6406C266.404 55.8965 266.247 56.1279 266.049 56.3223C265.852 56.5166 265.617 56.6699 265.359 56.7725C265.102 56.875 264.826 56.9248 264.549 56.9199L264.465 56.9199C264.365 56.9209 264.265 56.9365 264.169 56.9648C263.972 56.9365 263.774 56.9209 263.575 56.9199L263.491 56.9199C263.343 56.916 263.195 56.9424 263.056 56.9971C262.918 57.0518 262.792 57.1328 262.685 57.2373C262.579 57.3408 262.494 57.4648 262.436 57.6025C262.378 57.7393 262.349 57.8867 262.349 58.0352C262.349 58.1836 262.378 58.3311 262.436 58.4688C262.494 58.6055 262.579 58.7295 262.685 58.834C262.792 58.9375 262.918 59.0195 263.056 59.0732C263.195 59.1279 263.343 59.1543 263.491 59.1504L263.575 59.1504C264.129 59.1504 264.66 59.3701 265.051 59.7617C265.442 60.1523 265.662 60.6836 265.662 61.2373C265.662 61.79 265.442 62.3213 265.051 62.7129C264.66 63.1035 264.129 63.3232 263.575 63.3232L262.067 63.3232C261.919 63.3203 261.771 63.3457 261.632 63.4004C261.494 63.4551 261.367 63.5361 261.261 63.6406C261.154 63.7441 261.07 63.8682 261.012 64.0059C260.954 64.1426 260.925 64.29 260.925 64.4385C260.925 64.5879 260.954 64.7344 261.012 64.8721C261.07 65.0088 261.154 65.1328 261.261 65.2373C261.367 65.3408 261.494 65.4229 261.632 65.4766C261.771 65.5312 261.919 65.5576 262.067 65.5537L262.336 65.5537C262.613 65.5488 262.888 65.5986 263.146 65.7021C263.404 65.8047 263.638 65.957 263.836 66.1514C264.034 66.3457 264.191 66.5781 264.298 66.833C264.405 67.0889 264.46 67.3633 264.46 67.6406C264.46 67.918 264.405 68.1924 264.298 68.4482C264.191 68.7041 264.034 68.9355 263.836 69.1299C263.638 69.3242 263.404 69.4766 263.146 69.5801C262.888 69.6826 262.613 69.7324 262.336 69.7275L260.828 69.7275C260.68 69.7236 260.532 69.75 260.393 69.8047C260.255 69.8594 260.129 69.9404 260.022 70.0439C259.916 70.1484 259.831 70.2725 259.773 70.4092C259.715 70.5469 259.686 70.6943 259.686 70.8428C259.686 70.9912 259.715 71.1387 259.773 71.2764C259.831 71.4131 259.916 71.5371 260.022 71.6416C260.129 71.7451 260.255 71.8262 260.393 71.8809C260.532 71.9355 260.68 71.9619 260.828 71.958L260.912 71.958C261.466 71.958 261.996 72.1777 262.388 72.5693C262.779 72.96 262.999 73.4912 262.999 74.0449C262.999 74.5977 262.779 75.1289 262.388 75.5195C261.996 75.9111 261.466 76.1309 260.912 76.1309L241.213 76.1309L238.425 74.6064C238.261 74.5166 238.076 74.4707 237.889 74.4717L235.003 74.4717L235.003 76.7021L237.602 76.7021L240.391 78.2275C240.555 78.3164 240.74 78.3623 240.927 78.3613L260.912 78.3613C261.715 78.3623 262.502 78.1406 263.184 77.7188C263.867 77.2969 264.419 76.6934 264.777 75.9746C265.135 75.2568 265.285 74.4531 265.211 73.6543C265.137 72.8555 264.841 72.0928 264.357 71.4521C264.916 71.1582 265.403 70.7432 265.784 70.2393C266.165 69.7354 266.43 69.1533 266.561 68.5352C266.691 67.917 266.684 67.2783 266.54 66.6631C266.396 66.0479 266.119 65.4717 265.727 64.9756C266.385 64.5986 266.932 64.0537 267.313 63.3975C267.694 62.7402 267.895 61.9951 267.896 61.2363L267.897 61.2373Z" fill="#444444" fill-opacity="1.000000" fill-rule="nonzero"/>
	</g>
	<rect id="alloy" width="112.081909" height="112.081909" transform="translate(378.163818 0.000000)" fill="#FFFFFF" fill-opacity="0"/>
	<g clip-path="url(#clip395_1055)">
		<path id="Ellipse 67" d="M489.967 56.041C489.967 86.8379 465.001 111.803 434.205 111.803C403.408 111.803 378.442 86.8379 378.442 56.041C378.442 25.2441 403.408 0.27832 434.205 0.27832C465.001 0.27832 489.967 25.2441 489.967 56.041Z" fill="#F0F0F0" fill-opacity="1.000000" fill-rule="evenodd"/>
		<path id="Pfad 4403" d="M434.205 112.082C423.121 112.082 412.286 108.795 403.07 102.638C393.854 96.4795 386.671 87.7275 382.43 77.4873C378.188 67.2471 377.078 55.9785 379.241 45.1084C381.403 34.2373 386.74 24.252 394.578 16.4141C402.415 8.57617 412.401 3.23926 423.272 1.07715C434.143 -1.08594 445.411 0.0244141 455.651 4.26562C465.891 8.50781 474.643 15.6904 480.801 24.9062C486.959 34.1221 490.246 44.957 490.246 56.041C490.246 70.9043 484.341 85.1582 473.832 95.668C463.322 106.178 449.068 112.082 434.205 112.082ZM434.205 0.557617C423.231 0.557617 412.504 3.81152 403.38 9.9082C394.256 16.0049 387.144 24.6699 382.945 34.8086C378.746 44.9463 377.647 56.1025 379.788 66.8652C381.928 77.6279 387.213 87.5137 394.972 95.2734C402.732 103.033 412.618 108.317 423.381 110.458C434.143 112.599 445.299 111.5 455.437 107.301C465.576 103.102 474.241 95.9902 480.337 86.8662C486.434 77.7412 489.688 67.0146 489.688 56.041C489.688 48.7549 488.253 41.54 485.465 34.8086C482.676 28.0771 478.589 21.9609 473.437 16.8086C468.285 11.6562 462.169 7.56934 455.437 4.78125C448.706 1.99316 441.491 0.557617 434.205 0.557617Z" fill="#E3E3E3" fill-opacity="1.000000" fill-rule="nonzero"/>
		<path id="Pfad 4404" d="M460.912 58.2871L450.747 68.4531C449.943 68.1445 449.221 67.6553 448.637 67.0234C448.053 66.3906 447.623 65.6328 447.379 64.8076C446.812 62.8193 447.054 60.6885 448.05 58.877C449.108 56.9395 448.88 53.2832 446.703 49.6152L435.011 37.9219C448.677 35.2861 460.19 45.5479 460.912 58.2871Z" fill="#A04F55" fill-opacity="1.000000" fill-rule="nonzero"/>
		<path id="Pfad 4405" d="M447.75 66.9004C447.541 66.9004 447.336 66.8428 447.158 66.7314C446.981 66.6211 446.838 66.4629 446.746 66.2754C446.183 65.0156 445.92 63.6436 445.979 62.2646C446.038 60.8867 446.417 59.541 447.085 58.335C447.904 56.8301 447.73 53.5889 445.819 50.3008L439.892 44.3721C439.785 44.2695 439.7 44.1465 439.641 44.0098C439.583 43.874 439.552 43.7275 439.55 43.5791C439.549 43.4307 439.577 43.2842 439.633 43.1465C439.689 43.0098 439.772 42.8848 439.877 42.7803C439.982 42.6748 440.106 42.5918 440.244 42.5361C440.381 42.4795 440.528 42.4521 440.676 42.4531C440.824 42.4541 440.971 42.4854 441.107 42.5439C441.243 42.6025 441.366 42.6885 441.469 42.7949L447.497 48.8232C447.563 48.8887 447.621 48.9629 447.668 49.043C449.857 52.7285 450.407 56.8955 449.037 59.416C448.536 60.3066 448.249 61.3018 448.2 62.3223C448.15 63.3428 448.339 64.3604 448.751 65.2949C448.834 65.4648 448.872 65.6533 448.863 65.8418C448.853 66.0312 448.795 66.2148 448.695 66.375C448.595 66.5352 448.456 66.668 448.291 66.7598C448.125 66.8516 447.94 66.9004 447.75 66.9004L447.75 66.9004Z" fill="#444444" fill-opacity="1.000000" fill-rule="nonzero"/>
		<path id="Pfad 4406" d="M418.215 72.6143C418.068 72.6143 417.923 72.5859 417.788 72.5303C417.652 72.4736 417.53 72.3916 417.426 72.2881L400.591 55.4561C400.382 55.2471 400.265 54.9629 400.265 54.668C400.265 54.3721 400.382 54.0889 400.591 53.8789L402.839 51.6299C402.502 50.96 402.385 50.2002 402.504 49.46C402.623 48.7188 402.972 48.0342 403.502 47.5029L415.823 35.1797C415.925 35.0732 416.049 34.9873 416.185 34.9287C416.321 34.8701 416.467 34.8389 416.616 34.8379C416.764 34.8369 416.911 34.8643 417.048 34.9209C417.185 34.9766 417.31 35.0596 417.415 35.165C417.52 35.2695 417.603 35.3945 417.659 35.5312C417.715 35.6689 417.743 35.8154 417.742 35.9639C417.74 36.1123 417.709 36.2588 417.651 36.3945C417.592 36.5312 417.507 36.6543 417.4 36.7568L405.078 49.0801C404.828 49.3301 404.688 49.6699 404.688 50.0234C404.688 50.377 404.828 50.7158 405.078 50.9668C405.287 51.1758 405.404 51.459 405.404 51.7549C405.404 52.0508 405.287 52.334 405.078 52.543L402.955 54.6709L418.213 69.9238L420.335 67.8018C420.439 67.6982 420.562 67.6162 420.697 67.5596C420.833 67.5039 420.978 67.4746 421.124 67.4746C421.271 67.4746 421.416 67.5039 421.551 67.5596C421.686 67.6162 421.809 67.6982 421.913 67.8018C422.164 68.0518 422.504 68.1924 422.859 68.1924C423.214 68.1924 423.554 68.0518 423.805 67.8018L439.175 52.4238C439.388 52.2227 439.67 52.1104 439.963 52.1104C440.256 52.1104 440.539 52.2227 440.752 52.4238C440.854 52.5273 440.977 52.6094 441.111 52.666C441.246 52.7217 441.39 52.751 441.536 52.75C441.68 52.751 441.823 52.7217 441.956 52.666C442.089 52.6113 442.21 52.5293 442.312 52.4268L445.916 48.8223C446.019 48.7158 446.142 48.6299 446.278 48.5713C446.415 48.5127 446.561 48.4814 446.709 48.4805C446.858 48.4785 447.005 48.5068 447.142 48.5635C447.279 48.6191 447.404 48.7021 447.509 48.8066C447.613 48.9121 447.696 49.0361 447.752 49.1738C447.808 49.3115 447.837 49.458 447.835 49.6064C447.834 49.7549 447.803 49.9014 447.744 50.0371C447.686 50.1738 447.6 50.2969 447.493 50.3994L443.891 54.001C443.584 54.3115 443.218 54.5586 442.815 54.7266C442.412 54.8945 441.979 54.9805 441.542 54.9805L441.537 54.9805C441.039 54.9814 440.547 54.8701 440.098 54.6562L425.384 69.377C424.852 69.9082 424.167 70.2578 423.425 70.377C422.683 70.4951 421.923 70.3779 421.252 70.04L419.003 72.2881C418.9 72.3916 418.777 72.4746 418.641 72.5303C418.506 72.5869 418.361 72.6152 418.215 72.6152L418.215 72.6143Z" fill="#444444" fill-opacity="1.000000" fill-rule="nonzero"/>
		<path id="Pfad 4407" d="M457.983 83.8359L438.705 83.8359C438.409 83.8359 438.125 83.7188 437.916 83.5088C437.707 83.2998 437.589 83.0166 437.589 82.7207L437.589 80.4951C437.589 80.3486 437.618 80.2031 437.674 80.0684C437.73 79.9326 437.812 79.8096 437.916 79.7061L469.192 48.4307C469.294 48.3242 469.418 48.2383 469.554 48.1797C469.69 48.1211 469.836 48.0898 469.985 48.0889C470.133 48.0879 470.28 48.1152 470.417 48.1719C470.554 48.2275 470.679 48.3105 470.784 48.416C470.889 48.5205 470.972 48.6455 471.028 48.7822C471.084 48.9199 471.112 49.0664 471.111 49.2148C471.109 49.3633 471.078 49.5098 471.02 49.6455C470.961 49.7822 470.876 49.9053 470.769 50.0078L439.818 80.959L439.818 81.6064L457.981 81.6064C458.272 81.6143 458.549 81.7344 458.752 81.9434C458.956 82.1514 459.07 82.4307 459.07 82.7217C459.07 83.0127 458.956 83.293 458.752 83.501C458.549 83.709 458.272 83.8301 457.981 83.8369L457.983 83.8359Z" fill="#444444" fill-opacity="1.000000" fill-rule="nonzero"/>
		<path id="Ellipse 68" d="M427.879 44.4062C427.879 45.7354 426.801 46.8125 425.473 46.8125C424.144 46.8125 423.066 45.7354 423.066 44.4062C423.066 43.0771 424.144 42 425.473 42C426.801 42 427.879 43.0771 427.879 44.4062Z" fill="#444444" fill-opacity="1.000000" fill-rule="evenodd"/>
		<path id="Pfad 4408" d="M424.268 22.665C423.973 22.665 423.689 22.5469 423.48 22.3379C423.27 22.1289 423.153 21.8447 423.153 21.5498L423.153 13.1289C423.149 12.9805 423.175 12.832 423.23 12.6943C423.284 12.5557 423.366 12.4297 423.47 12.3232C423.574 12.2158 423.698 12.1318 423.835 12.0742C423.972 12.0156 424.119 11.9863 424.268 11.9863C424.417 11.9863 424.564 12.0156 424.701 12.0742C424.838 12.1318 424.963 12.2158 425.066 12.3232C425.17 12.4297 425.252 12.5557 425.306 12.6943C425.361 12.832 425.387 12.9805 425.383 13.1289L425.383 21.5498C425.383 21.8447 425.266 22.1289 425.057 22.3379C424.848 22.5469 424.564 22.665 424.268 22.665Z" fill="#444444" fill-opacity="1.000000" fill-rule="nonzero"/>
		<path id="Pfad 4409" d="M425.472 52.7393C423.701 52.7393 421.977 52.1748 420.548 51.1289C419.12 50.083 418.062 48.6084 417.528 46.9209C416.994 45.2324 417.011 43.4189 417.577 41.7412C418.143 40.0635 419.229 38.6104 420.676 37.5908C419.924 35.4434 419.541 33.1846 419.545 30.9092L419.545 25.1582C419.545 24.8623 419.662 24.5791 419.872 24.3701L423.48 20.7607C423.693 20.5596 423.976 20.4473 424.269 20.4473C424.562 20.4473 424.844 20.5596 425.058 20.7607L428.667 24.3701C428.876 24.5791 428.994 24.8623 428.994 25.1582L428.994 30.9092C428.993 32.8242 429.497 34.707 430.456 36.3652L432.694 40.2402C433.423 41.5078 433.807 42.9443 433.805 44.4072C433.804 45.8691 433.418 47.3057 432.687 48.5723C431.955 49.8379 430.903 50.8896 429.637 51.6211C428.371 52.3525 426.934 52.7383 425.472 52.7393ZM421.773 25.6201L421.773 30.9082C421.769 33.2139 422.211 35.498 423.075 37.6357C423.178 37.8906 423.183 38.1738 423.09 38.4316C422.997 38.6895 422.812 38.9043 422.571 39.0342C421.622 39.5469 420.825 40.3018 420.263 41.2217C419.7 42.1426 419.391 43.1953 419.368 44.2744C419.345 45.3525 419.608 46.418 420.131 47.3613C420.654 48.3057 421.417 49.0938 422.343 49.6465C423.27 50.1982 424.326 50.4961 425.405 50.5068C426.484 50.5186 427.546 50.2441 428.484 49.7109C429.422 49.1787 430.202 48.4062 430.744 47.4746C431.287 46.542 431.573 45.4824 431.572 44.4033C431.578 43.333 431.298 42.2793 430.76 41.3535L428.522 37.4785C427.368 35.4805 426.76 33.2139 426.76 30.9062L426.76 25.6201L424.266 23.126L421.773 25.6201Z" fill="#444444" fill-opacity="1.000000" fill-rule="nonzero"/>
	</g>
	<rect id="engraving" width="112.081909" height="112.081909" transform="translate(567.245728 0.000000)" fill="#FFFFFF" fill-opacity="0"/>
	<g clip-path="url(#clip395_1038)">
		<path id="Ellipse 66" d="M679.049 56.041C679.049 86.8379 654.083 111.803 623.287 111.803C592.49 111.803 567.524 86.8379 567.524 56.041C567.524 25.2441 592.49 0.27832 623.287 0.27832C654.083 0.27832 679.049 25.2441 679.049 56.041Z" fill="#F0F0F0" fill-opacity="1.000000" fill-rule="evenodd"/>
		<path id="Pfad 4389" d="M623.287 112.082C612.203 112.082 601.368 108.795 592.152 102.638C582.936 96.4795 575.753 87.7275 571.512 77.4873C567.27 67.2471 566.16 55.9785 568.323 45.1084C570.485 34.2373 575.822 24.252 583.66 16.4141C591.497 8.57617 601.483 3.23926 612.354 1.07715C623.225 -1.08594 634.493 0.0244141 644.733 4.26562C654.973 8.50781 663.725 15.6904 669.883 24.9062C676.041 34.1221 679.328 44.957 679.328 56.041C679.328 70.9043 673.423 85.1582 662.914 95.668C652.404 106.178 638.15 112.082 623.287 112.082ZM623.287 0.557617C612.313 0.557617 601.586 3.81152 592.462 9.9082C583.338 16.0049 576.226 24.6699 572.027 34.8086C567.828 44.9463 566.729 56.1025 568.87 66.8652C571.01 77.6279 576.295 87.5137 584.054 95.2734C591.814 103.033 601.7 108.317 612.463 110.458C623.225 112.599 634.381 111.5 644.519 107.301C654.658 103.102 663.323 95.9902 669.419 86.8662C675.516 77.7412 678.77 67.0146 678.77 56.041C678.77 48.7549 677.335 41.54 674.547 34.8086C671.758 28.0771 667.672 21.9609 662.519 16.8086C657.367 11.6562 651.251 7.56934 644.519 4.78125C637.788 1.99316 630.573 0.557617 623.287 0.557617Z" fill="#E3E3E3" fill-opacity="1.000000" fill-rule="nonzero"/>
		<path id="Pfad 4390" d="M607.567 83.6943L586.672 83.6689C586.377 83.668 586.094 83.5498 585.885 83.3408C585.676 83.1318 585.559 82.8486 585.559 82.5527L585.559 74.6133C585.559 74.3477 585.654 74.0898 585.827 73.8877C586 73.6855 586.24 73.5527 586.502 73.5117L589.98 72.9707C590.405 72.9062 590.806 72.7354 591.147 72.4727C591.487 72.2109 591.755 71.8672 591.927 71.4727L607.809 35.1055C607.896 34.9072 608.038 34.7383 608.218 34.6191C608.399 34.5 608.61 34.4355 608.827 34.4346L616.779 34.3975L616.784 34.3975C616.996 34.3975 617.204 34.458 617.383 34.5723C617.562 34.6855 617.705 34.8486 617.795 35.04L624.669 49.7646C624.731 49.8975 624.766 50.041 624.773 50.1875C624.779 50.334 624.757 50.4805 624.707 50.6182C624.656 50.7559 624.58 50.8828 624.481 50.9912C624.382 51.0986 624.262 51.1865 624.129 51.248C623.996 51.3105 623.853 51.3457 623.706 51.3516C623.56 51.3584 623.413 51.3359 623.276 51.2852C623.138 51.2354 623.011 51.1592 622.903 51.0596C622.795 50.9609 622.708 50.8408 622.646 50.708L616.076 36.6338L609.566 36.6641L593.966 72.3652C593.645 73.1045 593.143 73.749 592.506 74.2402C591.868 74.7314 591.117 75.0527 590.321 75.1748L587.788 75.5684L587.788 81.4375L606.452 81.4619L606.452 75.8164C605.773 75.6865 605.131 75.4111 604.569 75.0088C604.007 74.6074 603.539 74.0889 603.197 73.4883C602.855 72.8887 602.647 72.2207 602.588 71.5332C602.528 70.8447 602.619 70.1514 602.853 69.502L604.112 66.0117C604.19 65.7959 604.332 65.6094 604.52 65.4766C604.708 65.3447 604.931 65.2734 605.161 65.2734L618.791 65.2734C619.006 65.2734 619.215 65.3359 619.396 65.4521C619.576 65.5674 619.718 65.7334 619.807 65.9287L621.276 69.1709C621.556 69.7891 621.701 70.4609 621.702 71.1396C621.702 71.8184 621.558 72.4902 621.278 73.1084C620.999 73.7275 620.591 74.2793 620.081 74.7285C619.572 75.1768 618.972 75.5117 618.323 75.7109L618.323 81.4609L640.202 81.4609L640.202 75.7617L637.75 75.5879C636.878 75.5273 636.039 75.2285 635.325 74.7227C634.611 74.2178 634.05 73.5254 633.704 72.7227C633.591 72.4521 633.589 72.1484 633.698 71.876C633.808 71.6045 634.02 71.3867 634.289 71.2705C634.558 71.1533 634.862 71.1475 635.135 71.2529C635.409 71.3584 635.629 71.5674 635.75 71.835C635.935 72.2627 636.234 72.6318 636.614 72.9014C636.995 73.1709 637.442 73.3311 637.908 73.3633L641.398 73.6104C641.679 73.6299 641.943 73.7559 642.135 73.9629C642.327 74.1689 642.434 74.4404 642.434 74.7227L642.434 82.5752C642.434 82.8711 642.316 83.1543 642.107 83.3643C641.898 83.5732 641.614 83.6904 641.318 83.6904L617.209 83.6904C616.914 83.6904 616.63 83.5732 616.421 83.3643C616.212 83.1543 616.094 82.8711 616.094 82.5752L616.094 74.7969C616.094 74.5166 616.2 74.2461 616.391 74.04C616.581 73.834 616.842 73.708 617.122 73.6855C617.53 73.6533 617.924 73.5234 618.271 73.3066C618.617 73.0898 618.907 72.793 619.115 72.4404C619.323 72.0889 619.443 71.6914 619.466 71.2832C619.488 70.875 619.412 70.4678 619.244 70.0947L618.071 67.5068L605.946 67.5068L604.952 70.2588C604.822 70.6211 604.776 71.0078 604.817 71.3916C604.858 71.7744 604.985 72.1436 605.189 72.4697C605.393 72.7969 605.668 73.0732 605.994 73.2783C606.32 73.4834 606.688 73.6123 607.071 73.6553L607.688 73.7217C607.962 73.752 608.214 73.8818 608.398 74.0859C608.581 74.291 608.682 74.5557 608.682 74.8311L608.682 82.5762C608.682 82.7227 608.654 82.8672 608.598 83.0029C608.542 83.1377 608.459 83.2607 608.356 83.3643C608.252 83.4678 608.129 83.5508 607.994 83.6064C607.859 83.6621 607.714 83.6914 607.567 83.6914L607.567 83.6943ZM616.321 59.585L609.174 59.585C608.991 59.585 608.81 59.5391 608.649 59.4531C608.487 59.3662 608.349 59.2412 608.247 59.0879C608.146 58.9355 608.083 58.7598 608.065 58.5771C608.048 58.3945 608.075 58.2109 608.146 58.041L611.72 49.5176C611.806 49.3154 611.949 49.1426 612.132 49.0215C612.315 48.9004 612.529 48.8359 612.749 48.8359C612.969 48.8359 613.184 48.9004 613.367 49.0225C613.55 49.1445 613.693 49.3174 613.778 49.5195L617.35 58.043C617.42 58.2129 617.448 58.3965 617.43 58.5791C617.412 58.7617 617.35 58.9375 617.248 59.0898C617.146 59.2432 617.008 59.3682 616.847 59.4551C616.685 59.541 616.504 59.5869 616.321 59.5869L616.321 59.585ZM610.852 57.3545L614.644 57.3545L612.748 52.833L610.852 57.3545Z" fill="#444444" fill-opacity="1.000000" fill-rule="nonzero"/>
		<path id="Pfad 4391" d="M647.633 29.6045L630.904 29.6045C630.755 29.6074 630.607 29.582 630.469 29.5273C630.331 29.4727 630.204 29.3916 630.098 29.2871C629.991 29.1836 629.907 29.0596 629.849 28.9219C629.791 28.7852 629.761 28.6377 629.761 28.4893C629.761 28.3398 629.791 28.1934 629.849 28.0557C629.907 27.9189 629.991 27.7949 630.098 27.6904C630.204 27.5869 630.331 27.5049 630.469 27.4512C630.607 27.3965 630.755 27.3701 630.904 27.374L646.518 27.374L646.518 25.1426L626.444 25.1426L626.444 27.373L627.559 27.373C627.708 27.3691 627.856 27.3955 627.994 27.4502C628.133 27.5049 628.259 27.5859 628.366 27.6904C628.472 27.7939 628.557 27.918 628.614 28.0547C628.672 28.1924 628.702 28.3398 628.702 28.4883C628.702 28.6367 628.672 28.7842 628.614 28.9219C628.557 29.0586 628.472 29.1826 628.366 29.2871C628.259 29.3906 628.133 29.4727 627.994 29.5264C627.856 29.5811 627.708 29.6074 627.559 29.6035L625.329 29.6035C625.033 29.6035 624.749 29.4863 624.54 29.2764C624.331 29.0674 624.214 28.7842 624.214 28.4883L624.214 24.0273C624.214 23.7314 624.331 23.4482 624.54 23.2393C624.749 23.0293 625.033 22.9121 625.329 22.9121L647.634 22.9121C647.93 22.9121 648.214 23.0293 648.423 23.2393C648.632 23.4482 648.749 23.7314 648.749 24.0273L648.749 28.4893C648.749 28.6357 648.72 28.7812 648.664 28.916C648.608 29.0518 648.526 29.1748 648.422 29.2783C648.319 29.3818 648.196 29.4639 648.06 29.5195C647.925 29.5752 647.78 29.6045 647.633 29.6045Z" fill="#444444" fill-opacity="1.000000" fill-rule="nonzero"/>
		<path id="Pfad 4392" d="M645.402 34.0654L627.558 34.0654C627.263 34.0654 626.979 33.9473 626.77 33.7383C626.561 33.5293 626.443 33.2451 626.443 32.9492L626.443 28.4883C626.439 28.3398 626.466 28.1914 626.52 28.0537C626.574 27.915 626.656 27.7891 626.76 27.6826C626.864 27.5752 626.988 27.4912 627.125 27.4336C627.262 27.375 627.409 27.3457 627.558 27.3457C627.707 27.3457 627.854 27.375 627.991 27.4336C628.129 27.4912 628.253 27.5752 628.357 27.6826C628.46 27.7891 628.542 27.915 628.596 28.0537C628.651 28.1914 628.677 28.3398 628.673 28.4883L628.673 31.834L644.287 31.834L644.287 28.4883C644.283 28.3398 644.309 28.1914 644.364 28.0537C644.418 27.915 644.5 27.7891 644.604 27.6826C644.708 27.5752 644.832 27.4912 644.969 27.4336C645.106 27.375 645.253 27.3457 645.402 27.3457C645.551 27.3457 645.698 27.375 645.835 27.4336C645.972 27.4912 646.096 27.5752 646.2 27.6826C646.304 27.7891 646.386 27.915 646.44 28.0537C646.495 28.1914 646.521 28.3398 646.517 28.4883L646.517 32.9502C646.517 33.2461 646.399 33.5293 646.19 33.7383C645.981 33.9473 645.698 34.0645 645.402 34.0654Z" fill="#444444" fill-opacity="1.000000" fill-rule="nonzero"/>
		<path id="Pfad 4393" d="M642.057 42.9873L630.904 42.9873C630.608 42.9873 630.325 42.8701 630.115 42.6611C629.906 42.4512 629.789 42.168 629.789 41.8721L629.789 32.9502C629.789 32.6543 629.906 32.3701 630.115 32.1611C630.325 31.9521 630.608 31.834 630.904 31.834L642.057 31.834C642.205 31.8311 642.354 31.8564 642.492 31.9111C642.63 31.9658 642.757 32.0469 642.863 32.1514C642.97 32.2549 643.054 32.3789 643.112 32.5166C643.17 32.6533 643.2 32.8008 643.2 32.9492C643.2 33.0986 643.17 33.2451 643.112 33.3828C643.054 33.5195 642.97 33.6436 642.863 33.748C642.757 33.8516 642.63 33.9336 642.492 33.9873C642.354 34.042 642.205 34.0684 642.057 34.0645L632.019 34.0645L632.019 40.7559L640.941 40.7559L640.941 36.2959C640.938 36.1475 640.964 35.999 641.018 35.8613C641.073 35.7227 641.154 35.5967 641.258 35.4902C641.362 35.3828 641.486 35.2988 641.623 35.2412C641.76 35.1826 641.908 35.1533 642.056 35.1533C642.205 35.1533 642.353 35.1826 642.49 35.2412C642.627 35.2988 642.751 35.3828 642.855 35.4902C642.959 35.5967 643.04 35.7227 643.095 35.8613C643.149 35.999 643.175 36.1475 643.172 36.2959L643.172 41.8721C643.172 42.168 643.054 42.4512 642.845 42.6611C642.636 42.8701 642.352 42.9873 642.056 42.9873L642.057 42.9873Z" fill="#444444" fill-opacity="1.000000" fill-rule="nonzero"/>
		<path id="Pfad 4394" d="M636.481 51.9092C636.227 51.9092 635.982 51.8232 635.784 51.665L624.632 42.7432C624.451 42.5986 624.32 42.4014 624.256 42.1797C624.192 41.957 624.199 41.7207 624.275 41.5029C624.352 41.2842 624.494 41.0957 624.683 40.9619C624.872 40.8281 625.097 40.7568 625.328 40.7568L647.633 40.7568C647.864 40.7568 648.089 40.8291 648.278 40.9629C648.466 41.0967 648.609 41.2852 648.685 41.5029C648.761 41.7207 648.768 41.957 648.705 42.1797C648.641 42.4014 648.51 42.5986 648.33 42.7432L637.177 51.6641C636.979 51.8232 636.734 51.9092 636.481 51.9092ZM628.507 42.9873L636.481 49.3633L644.454 42.9873L628.507 42.9873Z" fill="#444444" fill-opacity="1.000000" fill-rule="nonzero"/>
		<path id="Pfad 4395" d="M643.682 66.7051C643.535 66.7051 643.39 66.6768 643.254 66.6201C643.119 66.5645 642.996 66.4814 642.892 66.3779L639.238 62.7158C639.135 62.6123 639.052 62.4893 638.997 62.3535C638.941 62.2188 638.912 62.0732 638.912 61.9268C638.912 61.7803 638.941 61.6357 638.997 61.5C639.054 61.3643 639.136 61.2422 639.24 61.1387C639.343 61.0352 639.466 60.9531 639.602 60.8965C639.737 60.8408 639.882 60.8125 640.029 60.8125C640.175 60.8125 640.32 60.8418 640.456 60.8975C640.591 60.9541 640.714 61.0361 640.817 61.1396L644.468 64.8008C644.624 64.957 644.73 65.1553 644.773 65.3721C644.816 65.5879 644.794 65.8125 644.709 66.0156C644.625 66.2197 644.482 66.3936 644.298 66.5156C644.115 66.6387 643.9 66.7041 643.679 66.7041L643.682 66.7051Z" fill="#A04F55" fill-opacity="1.000000" fill-rule="nonzero"/>
		<path id="Pfad 4396" d="M633.074 56.0752C632.927 56.0752 632.782 56.0459 632.647 55.9902C632.511 55.9336 632.388 55.8516 632.285 55.7471L628.714 52.1689C628.512 51.959 628.4 51.6768 628.403 51.3848C628.406 51.0928 628.524 50.8135 628.731 50.6074C628.938 50.4004 629.217 50.2832 629.51 50.2812C629.802 50.2793 630.083 50.3916 630.293 50.5938L633.864 54.1719C634.02 54.3281 634.125 54.5273 634.168 54.7432C634.211 54.959 634.188 55.1836 634.104 55.3867C634.019 55.5908 633.876 55.7646 633.693 55.8867C633.51 56.0098 633.294 56.0752 633.074 56.0752Z" fill="#A04F55" fill-opacity="1.000000" fill-rule="nonzero"/>
		<path id="Pfad 4397" d="M646.514 59.502L641.324 59.4961C641.175 59.5 641.027 59.4736 640.889 59.4189C640.75 59.3652 640.624 59.2832 640.517 59.1797C640.411 59.0752 640.326 58.9512 640.269 58.8145C640.211 58.6768 640.181 58.5303 640.181 58.3809C640.181 58.2324 640.211 58.085 640.269 57.9482C640.326 57.8105 640.411 57.6865 640.517 57.583C640.624 57.4785 640.75 57.3975 640.889 57.3428C641.027 57.2881 641.175 57.2627 641.324 57.2656L646.514 57.2715C646.663 57.2676 646.811 57.2939 646.949 57.3486C647.088 57.4023 647.214 57.4844 647.32 57.5879C647.427 57.6924 647.511 57.8164 647.569 57.9531C647.627 58.0908 647.657 58.2373 647.657 58.3867C647.657 58.5352 647.627 58.6826 647.569 58.8193C647.511 58.957 647.427 59.0811 647.32 59.1846C647.214 59.2891 647.088 59.3701 646.949 59.4248C646.811 59.4795 646.663 59.5049 646.514 59.502Z" fill="#A04F55" fill-opacity="1.000000" fill-rule="nonzero"/>
		<path id="Pfad 4398" d="M631.641 59.4863L626.448 59.4805C626.299 59.4844 626.151 59.458 626.013 59.4033C625.874 59.3496 625.748 59.2676 625.641 59.1641C625.535 59.0596 625.45 58.9355 625.392 58.7988C625.335 58.6611 625.305 58.5146 625.305 58.3652C625.305 58.2168 625.335 58.0693 625.392 57.9326C625.45 57.7949 625.535 57.6709 625.641 57.5674C625.748 57.4629 625.874 57.3818 626.013 57.3271C626.151 57.2725 626.299 57.2471 626.448 57.25L631.641 57.2559C631.932 57.2627 632.209 57.3838 632.412 57.5918C632.615 57.7998 632.729 58.0801 632.729 58.3711C632.729 58.6621 632.615 58.9414 632.412 59.1494C632.209 59.3584 631.932 59.4785 631.641 59.4863Z" fill="#A04F55" fill-opacity="1.000000" fill-rule="nonzero"/>
		<path id="Pfad 4399" d="M639.897 56.084C639.676 56.083 639.461 56.0176 639.277 55.8955C639.094 55.7725 638.951 55.5986 638.866 55.3945C638.782 55.1904 638.76 54.9658 638.803 54.75C638.846 54.5332 638.953 54.335 639.109 54.1787L642.684 50.6113C642.787 50.5049 642.91 50.4199 643.047 50.3613C643.183 50.3027 643.329 50.2715 643.477 50.2705C643.626 50.2695 643.773 50.2979 643.91 50.3535C644.047 50.4102 644.172 50.4932 644.276 50.5977C644.381 50.7031 644.464 50.8271 644.52 50.9648C644.576 51.1025 644.604 51.249 644.602 51.3975C644.601 51.5459 644.57 51.6924 644.511 51.8281C644.452 51.9648 644.367 52.0879 644.26 52.1904L640.685 55.7568C640.581 55.8604 640.459 55.9434 640.323 55.999C640.188 56.0547 640.043 56.084 639.897 56.084Z" fill="#A04F55" fill-opacity="1.000000" fill-rule="nonzero"/>
		<path id="Pfad 4400" d="M629.268 66.6934C629.047 66.6934 628.832 66.6279 628.648 66.5049C628.465 66.3828 628.322 66.208 628.238 66.0039C628.153 65.8008 628.131 65.5762 628.174 65.3594C628.218 65.1436 628.324 64.9443 628.48 64.7891L632.255 61.0205C632.358 60.9141 632.481 60.8291 632.618 60.7705C632.754 60.7119 632.9 60.6807 633.049 60.6797C633.197 60.6787 633.344 60.707 633.481 60.7627C633.618 60.8193 633.743 60.9023 633.848 61.0068C633.952 61.1123 634.035 61.2363 634.091 61.374C634.147 61.5117 634.175 61.6582 634.174 61.8066C634.172 61.9551 634.141 62.1016 634.082 62.2373C634.023 62.374 633.938 62.4971 633.831 62.5996L630.056 66.3672C629.953 66.4707 629.83 66.5527 629.694 66.6084C629.559 66.665 629.414 66.6934 629.268 66.6934Z" fill="#A04F55" fill-opacity="1.000000" fill-rule="nonzero"/>
		<path id="Pfad 4401" d="M636.475 62.1035C636.771 62.1035 637.054 62.2207 637.263 62.4297C637.472 62.6387 637.59 62.9219 637.59 63.2178L637.59 68.6387C637.59 68.7852 637.561 68.9297 637.505 69.0654C637.449 69.2012 637.366 69.3232 637.263 69.4268C637.159 69.5312 637.036 69.6133 636.901 69.6689C636.766 69.7246 636.621 69.7539 636.474 69.7539C636.179 69.7539 635.895 69.6367 635.686 69.4277C635.477 69.2188 635.36 68.9355 635.36 68.6396L635.36 63.2188C635.36 62.9229 635.478 62.6396 635.687 62.4307C635.896 62.2207 636.18 62.1035 636.475 62.1035Z" fill="#A04F55" fill-opacity="1.000000" fill-rule="nonzero"/>
		<path id="Pfad 4402" d="M636.482 59.5166C636.187 59.5156 635.903 59.3975 635.695 59.1875C635.486 58.9785 635.369 58.6943 635.37 58.3984L635.392 50.792C635.392 50.4961 635.51 50.2139 635.719 50.0049C635.929 49.7969 636.212 49.6797 636.507 49.6797C636.803 49.6807 637.086 49.7988 637.295 50.0088C637.503 50.2178 637.62 50.502 637.619 50.7979L637.598 58.4043C637.597 58.7002 637.479 58.9824 637.27 59.1914C637.061 59.3994 636.777 59.5166 636.482 59.5166Z" fill="#444444" fill-opacity="1.000000" fill-rule="nonzero"/>
	</g>
</svg>
