<svg width="132.000000" height="24.000000" viewBox="0 0 132 24" fill="none" xmlns="http://www.w3.org/2000/svg" xmlns:xlink="http://www.w3.org/1999/xlink">
	<desc>
			Created with Pixso.
	</desc>
	<defs>
		<clipPath id="clip401_1776">
			<rect id="Frame" width="24.000000" height="24.000000" transform="translate(108.000000 0.000000)" fill="white" fill-opacity="0"/>
		</clipPath>
		<clipPath id="clip401_1779">
			<rect id="Frame" width="24.000000" height="24.000000" transform="translate(54.000000 0.000000)" fill="white" fill-opacity="0"/>
		</clipPath>
		<clipPath id="clip401_1782">
			<rect id="Frame" width="24.000000" height="24.000000" fill="white" fill-opacity="0"/>
		</clipPath>
	</defs>
	<rect id="Frame" width="24.000000" height="24.000000" transform="translate(108.000000 0.000000)" fill="#FFFFFF" fill-opacity="0"/>
	<g clip-path="url(#clip401_1776)">
		<path id="Vector" d="M126.031 16.6172L130.314 20.8989L128.899 22.314L124.617 18.0308C123.024 19.3081 121.042 20.0029 119 20C114.032 20 110 15.9678 110 11C110 6.03223 114.032 2 119 2C123.968 2 128 6.03223 128 11C128.003 13.042 127.308 15.0239 126.031 16.6172ZM124.025 15.875C125.294 14.5698 126.003 12.8203 126 11C126 7.13184 122.867 4 119 4C115.132 4 112 7.13184 112 11C112 14.8672 115.132 18 119 18C120.82 18.0029 122.57 17.2939 123.875 16.0249L124.025 15.875Z" fill="#444444" fill-opacity="1.000000" fill-rule="nonzero"/>
	</g>
	<rect id="Frame" width="24.000000" height="24.000000" transform="translate(54.000000 0.000000)" fill="#FFFFFF" fill-opacity="0"/>
	<g clip-path="url(#clip401_1779)">
		<path id="Vector" d="M58 6.41406L54.7568 3.17188L56.1719 1.75684L59.4141 5L74.6558 5C74.8115 5 74.9653 5.03613 75.1045 5.10645C75.2441 5.17627 75.3652 5.27783 75.458 5.40283C75.5513 5.52783 75.6138 5.67285 75.6406 5.82617C75.668 5.97998 75.6587 6.1377 75.6138 6.28662L73.2139 14.2866C73.1519 14.4927 73.0254 14.6738 72.853 14.8022C72.6802 14.9307 72.4712 15 72.2559 15L60 15L60 17L71 17L71 19L59 19C58.7349 19 58.4805 18.8945 58.293 18.707C58.105 18.5195 58 18.2651 58 18L58 6.41406ZM60 7L60 13L71.5117 13L73.312 7L60 7ZM59.5 23C59.1021 23 58.7207 22.8418 58.439 22.5605C58.1577 22.2793 58 21.8975 58 21.5C58 21.1021 58.1577 20.7207 58.439 20.439C58.7207 20.1577 59.1021 20 59.5 20C59.8975 20 60.2793 20.1577 60.5605 20.439C60.8418 20.7207 61 21.1021 61 21.5C61 21.8975 60.8418 22.2793 60.5605 22.5605C60.2793 22.8418 59.8975 23 59.5 23ZM71.5 23C71.1021 23 70.7207 22.8418 70.439 22.5605C70.1577 22.2793 70 21.8975 70 21.5C70 21.1021 70.1577 20.7207 70.439 20.439C70.7207 20.1577 71.1021 20 71.5 20C71.8975 20 72.2793 20.1577 72.5605 20.439C72.8418 20.7207 73 21.1021 73 21.5C73 21.8975 72.8418 22.2793 72.5605 22.5605C72.2793 22.8418 71.8975 23 71.5 23Z" fill="#444444" fill-opacity="1.000000" fill-rule="nonzero"/>
	</g>
	<rect id="Frame" width="24.000000" height="24.000000" fill="#FFFFFF" fill-opacity="0"/>
	<g clip-path="url(#clip401_1782)">
		<path id="Vector" d="M20 22L4 22C3.73486 22 3.48047 21.8945 3.29297 21.707C3.10547 21.5195 3 21.2651 3 21L3 3C3 2.73486 3.10547 2.48047 3.29297 2.29297C3.48047 2.10547 3.73486 2 4 2L20 2C20.2651 2 20.5195 2.10547 20.707 2.29297C20.8945 2.48047 21 2.73486 21 3L21 21C21 21.2651 20.8945 21.5195 20.707 21.707C20.5195 21.8945 20.2651 22 20 22ZM19 20L19 4L5 4L5 20L19 20ZM8 7L16 7L16 9L8 9L8 7ZM8 11L16 11L16 13L8 13L8 11ZM8 15L16 15L16 17L8 17L8 15Z" fill="#444444" fill-opacity="1.000000" fill-rule="nonzero"/>
	</g>
</svg>
