<svg width="48.000000" height="48.000000" viewBox="0 0 48 48" fill="none" xmlns="http://www.w3.org/2000/svg" xmlns:xlink="http://www.w3.org/1999/xlink">
	<desc>
			Created with Pixso.
	</desc>
	<defs/>
	<rect id="Mail_black" width="48.000000" height="48.000000" fill="#FFFFFF" fill-opacity="0"/>
	<path id="Combined-Shape" d="M24 48C10.7451 48 0 37.2549 0 24C0 10.7451 10.7451 0 24 0C37.2549 0 48 10.7451 48 24C48 37.2549 37.2549 48 24 48ZM24.3344 22.6531C26.2996 22.6531 35.8544 17.28 35.8544 17.28L35.8698 16.3201C35.8698 15.2603 35.0096 14.3999 33.9469 14.3999L14.7219 14.3999C13.6602 14.3999 12.8 15.2603 12.8 16.3201L12.8 17.1753C12.8 17.1753 22.4595 22.6531 24.3344 22.6531ZM12.8153 20.1599C12.8152 20.1604 22.4596 25.293 24.3344 25.293C26.3898 25.293 35.8544 20.1599 35.8544 20.1599L35.8698 31.6799C35.8698 32.7397 35.0096 33.6001 33.9469 33.6001L14.7219 33.6001C13.6611 33.6001 12.8 32.7397 12.8 31.6799L12.8153 20.1599Z" clip-rule="evenodd" fill="#2E2E2E" fill-opacity="1.000000" fill-rule="evenodd"/>
</svg>
