<svg width="48.000000" height="48.000000" viewBox="0 0 48 48" fill="none" xmlns="http://www.w3.org/2000/svg" xmlns:xlink="http://www.w3.org/1999/xlink">
	<desc>
			Created with Pixso.
	</desc>
	<defs/>
	<rect id="Phone_black" width="48.000000" height="48.000000" fill="#FFFFFF" fill-opacity="0"/>
	<path id="Combined-Shape" d="M24 0C10.7451 0 0 10.7451 0 24C0 37.2549 10.7451 48 24 48C37.2549 48 48 37.2549 48 24C48 10.7451 37.2549 0 24 0ZM16.7877 12C16.8588 12.0564 16.9152 12.0564 16.9714 12.0491C17.2628 12.0244 17.5127 12.0955 17.6743 12.3625C18.0367 12.9502 18.4016 13.5381 18.7469 14.1404C19.1461 14.8359 19.5135 15.551 19.9054 16.2539C20.0057 16.4426 20.1454 16.614 20.2629 16.7952C20.3707 16.9666 20.4735 17.1431 20.574 17.3145C20.7797 17.7039 20.7699 18.0957 20.4637 18.4067C20.0278 18.8523 19.5479 19.2664 19.085 19.6899C18.698 20.0449 18.2964 20.3855 17.9192 20.7478C17.6254 21.032 17.5494 21.3872 17.7478 21.7617C18.054 22.335 18.3575 22.908 18.6931 23.4688C19.9373 25.543 21.5266 27.3064 23.5348 28.6655C24.3087 29.1921 25.1144 29.6746 25.9275 30.135C26.6941 30.5684 26.9928 30.4951 27.5879 29.8313C28.1414 29.2166 28.6753 28.592 29.2263 27.9724C29.3586 27.8232 29.5178 27.6909 29.672 27.5635C29.9855 27.2991 30.3284 27.2695 30.6884 27.4509C30.7888 27.4998 30.8966 27.5439 30.9847 27.6077C31.9398 28.2908 33.0076 28.7734 34.0166 29.3538C34.5579 29.6648 35.0844 29.9978 35.6158 30.3162C35.9023 30.4851 36.0175 30.7327 35.9979 31.073C35.944 32.0305 35.7848 32.9709 35.2289 33.7791C34.9962 34.1147 34.6656 34.4084 34.3325 34.646C33.4093 35.2927 32.3782 35.6919 31.281 35.9368C30.2843 36.1597 29.29 36.0789 28.3348 35.78C26.4907 35.2119 24.6736 34.5603 23.001 33.5735C21.4825 32.6746 20.1013 31.5896 18.8229 30.3774C17.2041 28.8369 15.7592 27.157 14.5909 25.2444C13.8293 24.0027 13.2856 22.6655 12.7935 21.3013C12.4946 20.4785 12.2007 19.6631 12.0685 18.791C11.9166 17.8042 12.022 16.854 12.3379 15.9185C12.6219 15.0735 12.9771 14.2654 13.5134 13.543C13.9347 12.9822 14.4612 12.5706 15.142 12.387C15.6881 12.2424 16.2391 12.1274 16.7877 12Z" clip-rule="evenodd" fill="#2E2E2E" fill-opacity="1.000000" fill-rule="evenodd"/>
</svg>
