<svg width="20.898926" height="21.243164" viewBox="0 0 20.8989 21.2432" fill="none" xmlns="http://www.w3.org/2000/svg" xmlns:xlink="http://www.w3.org/1999/xlink">
	<desc>
			Created with Pixso.
	</desc>
	<defs/>
	<path id="Vector" d="M3.24292 4.65723L0 1.41504L1.41504 0L4.65698 3.24316L19.8989 3.24316C20.0549 3.24316 20.2085 3.2793 20.3479 3.34961C20.4871 3.41943 20.6082 3.521 20.7012 3.646C20.7942 3.771 20.8569 3.91602 20.8838 4.06934C20.9109 4.22314 20.9019 4.38086 20.8569 4.52979L18.457 12.5298C18.3953 12.7358 18.2688 12.917 18.0962 13.0454C17.9236 13.1738 17.7141 13.2432 17.499 13.2432L5.24292 13.2432L5.24292 15.2432L16.2429 15.2432L16.2429 17.2432L4.24292 17.2432C3.97778 17.2432 3.72339 17.1377 3.53589 16.9502C3.34839 16.7627 3.24292 16.5083 3.24292 16.2432L3.24292 4.65723ZM5.24292 5.24316L5.24292 11.2432L16.7549 11.2432L18.5549 5.24316L5.24292 5.24316ZM4.74292 21.2432C4.34521 21.2432 3.96362 21.085 3.68237 20.8037C3.40112 20.5225 3.24292 20.1406 3.24292 19.7432C3.24292 19.3452 3.40112 18.9639 3.68237 18.6821C3.96362 18.4009 4.34521 18.2432 4.74292 18.2432C5.14087 18.2432 5.52246 18.4009 5.80371 18.6821C6.08496 18.9639 6.24292 19.3452 6.24292 19.7432C6.24292 20.1406 6.08496 20.5225 5.80371 20.8037C5.52246 21.085 5.14087 21.2432 4.74292 21.2432ZM16.7429 21.2432C16.3452 21.2432 15.9636 21.085 15.6824 20.8037C15.4011 20.5225 15.2429 20.1406 15.2429 19.7432C15.2429 19.3452 15.4011 18.9639 15.6824 18.6821C15.9636 18.4009 16.3452 18.2432 16.7429 18.2432C17.1409 18.2432 17.5225 18.4009 17.8037 18.6821C18.085 18.9639 18.2429 19.3452 18.2429 19.7432C18.2429 20.1406 18.085 20.5225 17.8037 20.8037C17.5225 21.085 17.1409 21.2432 16.7429 21.2432Z" fill="#2E2E2E" fill-opacity="1.000000" fill-rule="nonzero"/>
</svg>
