<svg width="55.000000" height="33.000000" viewBox="0 0 55 33" fill="none" xmlns="http://www.w3.org/2000/svg" xmlns:xlink="http://www.w3.org/1999/xlink">
	<desc>
			Created with Pixso.
	</desc>
	<defs/>
	<path id="Vector" d="M19.9125 26.8022C19.6153 28.522 18.5756 30.0957 16.9842 31.2344C15.3929 32.373 13.3568 33 11.25 33C9.14322 33 7.10715 32.373 5.51581 31.2344C3.92447 30.0957 2.8847 28.522 2.58749 26.8022L0 26.8022L0 2.06152C0 1.51514 0.263397 0.990723 0.732239 0.604004C1.20108 0.217285 1.83694 0 2.5 0L37.5 0C38.163 0 38.799 0.217285 39.2678 0.604004C39.7366 0.990723 40 1.51514 40 2.06152L40 6.18506L47.5 6.18506L55 14.5474L55 26.8022L49.9125 26.8022C49.6153 28.522 48.5756 30.0957 46.9842 31.2344C45.3929 32.373 43.3568 33 41.25 33C39.1432 33 37.1071 32.373 35.5158 31.2344C33.9244 30.0957 32.8847 28.522 32.5875 26.8022L19.9125 26.8022ZM35 4.12354L5 4.12354L5 20.7202C5.98642 19.8896 7.20151 19.2681 8.54187 18.9082C9.88226 18.5483 11.3082 18.4604 12.6985 18.6528C14.0887 18.8452 15.4019 19.3115 16.5265 20.0127C17.6511 20.7134 18.5537 21.6279 19.1575 22.6787L33.3425 22.6787C33.7625 21.9507 34.325 21.2891 35 20.7202L35 4.12354ZM40 16.4937L50 16.4937L50 15.9058L44.98 10.3086L40 10.3086L40 16.4937ZM41.25 28.8638C42.2449 28.8638 43.199 28.5376 43.9025 27.9575C44.606 27.3774 45.0012 26.5908 45.0012 25.77C45.0012 24.9497 44.606 24.1626 43.9025 23.5825C43.199 23.0024 42.2449 22.6768 41.25 22.6768C40.2551 22.6768 39.301 23.0024 38.5975 23.5825C37.894 24.1626 37.4988 24.9497 37.4988 25.77C37.4988 26.5908 37.894 27.3774 38.5975 27.9575C39.301 28.5376 40.2551 28.8638 41.25 28.8638ZM15 25.771C15 25.3652 14.903 24.9629 14.7145 24.5879C14.5261 24.2124 14.2499 23.8716 13.9016 23.5845C13.5534 23.2974 13.14 23.0693 12.6851 22.9141C12.2301 22.7588 11.7425 22.6787 11.25 22.6787C10.7575 22.6787 10.2699 22.7588 9.81494 22.9141C9.35995 23.0693 8.94656 23.2974 8.59836 23.5845C8.25012 23.8716 7.97391 24.2124 7.78546 24.5879C7.59698 24.9629 7.5 25.3652 7.5 25.771C7.5 26.5913 7.89508 27.3779 8.59836 27.958C9.30161 28.5381 10.2554 28.8638 11.25 28.8638C12.2446 28.8638 13.1984 28.5381 13.9016 27.958C14.6049 27.3779 15 26.5913 15 25.771Z" fill="#D2B574" fill-opacity="1.000000" fill-rule="nonzero"/>
</svg>
