<svg width="20.313965" height="20.313965" viewBox="0 0 20.314 20.314" fill="none" xmlns="http://www.w3.org/2000/svg" xmlns:xlink="http://www.w3.org/1999/xlink">
	<desc>
			Created with Pixso.
	</desc>
	<defs/>
	<path id="Vector" d="M16.031 14.6172L20.314 18.8989L18.8989 20.314L14.6169 16.0308C13.0237 17.3081 11.042 18.0029 9 18C4.03198 18 0 13.9678 0 9C0 4.03223 4.03198 0 9 0C13.968 0 18 4.03223 18 9C18.0029 11.042 17.3081 13.0239 16.031 14.6172ZM14.0249 13.875C15.2942 12.5698 16.0029 10.8203 16 9C16 5.13184 12.8669 2 9 2C5.13208 2 2 5.13184 2 9C2 12.8672 5.13208 16 9 16C10.8203 16.0029 12.5698 15.2939 13.875 14.0249L14.0249 13.875Z" fill="#2E2E2E" fill-opacity="1.000000" fill-rule="nonzero"/>
</svg>
