<svg width="33.000000" height="33.000000" viewBox="0 0 33 33" fill="none" xmlns="http://www.w3.org/2000/svg" xmlns:xlink="http://www.w3.org/1999/xlink">
	<desc>
			Created with Pixso.
	</desc>
	<defs>
		<linearGradient id="paint_linear_193_1027_0" x1="0.034443" y1="4.454127" x2="13.804057" y2="6.509213" gradientUnits="userSpaceOnUse">
			<stop stop-color="#222357"/>
			<stop offset="1.000000" stop-color="#254AA5"/>
		</linearGradient>
	</defs>
	<rect id="Visa" width="33.000000" height="33.000000" fill="#FFFFFF" fill-opacity="0"/>
	<path id="Oval" d="M16.5 33C25.6128 33 33 25.6128 33 16.5C33 7.38721 25.6128 0 16.5 0C7.38721 0 0 7.38721 0 16.5C0 25.6128 7.38721 33 16.5 33Z" fill="#FFFFFF" fill-opacity="1.000000" fill-rule="nonzero"/>
	<path id="path-2" d="M18.2446 17.5564C17.6396 17.2593 16.8359 16.759 16.8477 15.863C16.8564 14.6523 17.9663 13.8066 19.5449 13.8066C20.1602 13.8066 20.6543 13.9419 21.0391 14.083L20.7583 15.4019C20.0435 15.0698 19.4126 15.0933 19.1841 15.1238C18.7227 15.1841 18.5117 15.4216 18.5063 15.6443C18.5005 15.939 18.8613 16.1301 19.2949 16.3596C19.9409 16.7014 20.748 17.1287 20.7441 18.1111C20.7383 19.4048 19.6411 20.2393 17.9644 20.2393C17.2495 20.2327 16.561 20.082 16.189 19.9092L16.4775 18.5459C16.4878 18.5505 16.498 18.5554 16.5078 18.5601C16.874 18.7329 17.3369 18.9512 18.1172 18.939C18.5771 18.9316 19.0684 18.7476 19.0732 18.3298C19.0757 18.0571 18.8667 17.8616 18.2446 17.5564ZM10.7915 18.1553L12.4536 13.9204L14.1304 13.9204L11.5435 20.1423L9.85596 20.1423L8.58252 15.177C8.50537 14.8713 8.43848 14.759 8.20312 14.6304C7.81934 14.4197 7.18555 14.2229 6.62793 14.1011L6.66602 13.9204L9.38281 13.9204C9.729 13.9204 10.0405 14.1523 10.1191 14.5544L10.7915 18.1553ZM14.8159 13.9204L13.4951 20.1423L15.0918 20.1423L16.4121 13.9204L14.8159 13.9204ZM23.7358 13.9204C23.4297 13.9204 23.1714 14.1003 23.0562 14.3767L20.6611 20.1423L22.3364 20.1423L22.6699 19.2134L24.7178 19.2134L24.9111 20.1423L26.3882 20.1423L25.0991 13.9204L23.7358 13.9204ZM24.4541 17.9375L23.9702 15.6011L23.1294 17.9375L24.4541 17.9375Z" clip-rule="evenodd" fill="url(#paint_linear_193_1027_0)" fill-opacity="1.000000" fill-rule="evenodd"/>
</svg>
