<svg width="24.000000" height="24.000000" viewBox="0 0 24 24" fill="none" xmlns="http://www.w3.org/2000/svg" xmlns:xlink="http://www.w3.org/1999/xlink">
	<desc>
			Created with Pixso.
	</desc>
	<defs>
		<clipPath id="clip35_186">
			<rect id="Frame" width="24.000000" height="24.000000" fill="white" fill-opacity="0"/>
		</clipPath>
	</defs>
	<rect id="Frame" width="24.000000" height="24.000000" fill="#FFFFFF" fill-opacity="0"/>
	<g clip-path="url(#clip35_186)">
		<path id="Vector" d="M18.031 16.6169L22.314 20.899L20.899 22.314L16.617 18.031C15.0237 19.3082 13.042 20.0029 11 20C6.03198 20 2 15.968 2 11C2 6.03198 6.03198 2 11 2C15.968 2 20 6.03198 20 11C20.0029 13.042 19.3082 15.0237 18.031 16.6169ZM16.025 15.875C17.2941 14.5698 18.0029 12.8204 18 11C18 7.13196 14.867 4 11 4C7.13202 4 4 7.13196 4 11C4 14.8669 7.13202 18 11 18C12.8204 18.0028 14.5699 17.2941 15.875 16.025L16.025 15.875Z" fill="#2E2E2E" fill-opacity="1.000000" fill-rule="nonzero"/>
	</g>
</svg>
