<svg width="18.000000" height="20.000000" viewBox="0 0 18 20" fill="none" xmlns="http://www.w3.org/2000/svg" xmlns:xlink="http://www.w3.org/1999/xlink">
	<desc>
			Created with Pixso.
	</desc>
	<defs/>
	<path id="Vector" d="M17 20L1 20C0.734802 20 0.480408 19.8947 0.292908 19.7072C0.105347 19.5195 0 19.2653 0 19L0 1C0 0.734741 0.105347 0.480469 0.292908 0.292847C0.480408 0.105347 0.734802 0 1 0L17 0C17.2652 0 17.5196 0.105347 17.7071 0.292847C17.8947 0.480469 18 0.734741 18 1L18 19C18 19.2653 17.8947 19.5195 17.7071 19.7072C17.5196 19.8947 17.2652 20 17 20ZM16 18L16 2L2 2L2 18L16 18ZM5 5L13 5L13 7L5 7L5 5ZM5 9L13 9L13 11L5 11L5 9ZM5 13L13 13L13 15L5 15L5 13Z" fill="#2E2E2E" fill-opacity="1.000000" fill-rule="nonzero"/>
</svg>
